<svg width="1310" height="700" viewBox="0 0 1310 700" fill="none" xmlns="http://www.w3.org/2000/svg">
<rect width="1310" height="700" fill="url(#paint0_linear_15_2)"/>
<line x1="9.75" y1="700" x2="9.75" stroke="white" stroke-opacity="0.1" stroke-width="0.5"/>
<line x1="19.75" y1="700" x2="19.75" stroke="white" stroke-opacity="0.1" stroke-width="0.5"/>
<line x1="29.75" y1="700" x2="29.75" stroke="white" stroke-opacity="0.1" stroke-width="0.5"/>
<line x1="39.75" y1="700" x2="39.75" stroke="white" stroke-opacity="0.1" stroke-width="0.5"/>
<line x1="49.75" y1="700" x2="49.75" stroke="white" stroke-opacity="0.1" stroke-width="0.5"/>
<line x1="59.75" y1="700" x2="59.75" stroke="white" stroke-opacity="0.1" stroke-width="0.5"/>
<line x1="69.75" y1="700" x2="69.75" stroke="white" stroke-opacity="0.1" stroke-width="0.5"/>
<line x1="79.75" y1="700" x2="79.75" stroke="white" stroke-opacity="0.1" stroke-width="0.5"/>
<line x1="89.75" y1="700" x2="89.75" stroke="white" stroke-opacity="0.1" stroke-width="0.5"/>
<line x1="99.75" y1="700" x2="99.75" stroke="white" stroke-opacity="0.3" stroke-width="0.5"/>
<line x1="109.75" y1="700" x2="109.75" stroke="white" stroke-opacity="0.1" stroke-width="0.5"/>
<line x1="119.75" y1="700" x2="119.75" stroke="white" stroke-opacity="0.1" stroke-width="0.5"/>
<line x1="129.75" y1="700" x2="129.75" stroke="white" stroke-opacity="0.1" stroke-width="0.5"/>
<line x1="139.75" y1="700" x2="139.75" stroke="white" stroke-opacity="0.1" stroke-width="0.5"/>
<line x1="149.75" y1="700" x2="149.75" stroke="white" stroke-opacity="0.1" stroke-width="0.5"/>
<line x1="159.75" y1="700" x2="159.75" stroke="white" stroke-opacity="0.1" stroke-width="0.5"/>
<line x1="169.75" y1="700" x2="169.75" stroke="white" stroke-opacity="0.1" stroke-width="0.5"/>
<line x1="179.75" y1="700" x2="179.75" stroke="white" stroke-opacity="0.1" stroke-width="0.5"/>
<line x1="189.75" y1="700" x2="189.75" stroke="white" stroke-opacity="0.1" stroke-width="0.5"/>
<line x1="199.75" y1="700" x2="199.75" stroke="white" stroke-opacity="0.3" stroke-width="0.5"/>
<line x1="209.75" y1="700" x2="209.75" stroke="white" stroke-opacity="0.1" stroke-width="0.5"/>
<line x1="219.75" y1="700" x2="219.75" stroke="white" stroke-opacity="0.1" stroke-width="0.5"/>
<line x1="229.75" y1="700" x2="229.75" stroke="white" stroke-opacity="0.1" stroke-width="0.5"/>
<line x1="239.75" y1="700" x2="239.75" stroke="white" stroke-opacity="0.1" stroke-width="0.5"/>
<line x1="249.75" y1="700" x2="249.75" stroke="white" stroke-opacity="0.1" stroke-width="0.5"/>
<line x1="259.75" y1="700" x2="259.75" stroke="white" stroke-opacity="0.1" stroke-width="0.5"/>
<line x1="269.75" y1="700" x2="269.75" stroke="white" stroke-opacity="0.1" stroke-width="0.5"/>
<line x1="279.75" y1="700" x2="279.75" stroke="white" stroke-opacity="0.1" stroke-width="0.5"/>
<line x1="289.75" y1="700" x2="289.75" stroke="white" stroke-opacity="0.1" stroke-width="0.5"/>
<line x1="299.75" y1="700" x2="299.75" stroke="white" stroke-opacity="0.3" stroke-width="0.5"/>
<line x1="309.75" y1="700" x2="309.75" stroke="white" stroke-opacity="0.1" stroke-width="0.5"/>
<line x1="319.75" y1="700" x2="319.75" stroke="white" stroke-opacity="0.1" stroke-width="0.5"/>
<line x1="329.75" y1="700" x2="329.75" stroke="white" stroke-opacity="0.1" stroke-width="0.5"/>
<line x1="339.75" y1="700" x2="339.75" stroke="white" stroke-opacity="0.1" stroke-width="0.5"/>
<line x1="349.75" y1="700" x2="349.75" stroke="white" stroke-opacity="0.1" stroke-width="0.5"/>
<line x1="359.75" y1="700" x2="359.75" stroke="white" stroke-opacity="0.1" stroke-width="0.5"/>
<line x1="369.75" y1="700" x2="369.75" stroke="white" stroke-opacity="0.1" stroke-width="0.5"/>
<line x1="379.75" y1="700" x2="379.75" stroke="white" stroke-opacity="0.1" stroke-width="0.5"/>
<line x1="389.75" y1="700" x2="389.75" stroke="white" stroke-opacity="0.1" stroke-width="0.5"/>
<line x1="399.75" y1="700" x2="399.75" stroke="white" stroke-opacity="0.3" stroke-width="0.5"/>
<line x1="409.75" y1="700" x2="409.75" stroke="white" stroke-opacity="0.1" stroke-width="0.5"/>
<line x1="419.75" y1="700" x2="419.75" stroke="white" stroke-opacity="0.1" stroke-width="0.5"/>
<line x1="429.75" y1="700" x2="429.75" stroke="white" stroke-opacity="0.1" stroke-width="0.5"/>
<line x1="439.75" y1="700" x2="439.75" stroke="white" stroke-opacity="0.1" stroke-width="0.5"/>
<line x1="449.75" y1="700" x2="449.75" stroke="white" stroke-opacity="0.1" stroke-width="0.5"/>
<line x1="459.75" y1="700" x2="459.75" stroke="white" stroke-opacity="0.1" stroke-width="0.5"/>
<line x1="469.75" y1="700" x2="469.75" stroke="white" stroke-opacity="0.1" stroke-width="0.5"/>
<line x1="479.75" y1="700" x2="479.75" stroke="white" stroke-opacity="0.1" stroke-width="0.5"/>
<line x1="489.75" y1="700" x2="489.75" stroke="white" stroke-opacity="0.1" stroke-width="0.5"/>
<line x1="499.75" y1="700" x2="499.75" stroke="white" stroke-opacity="0.3" stroke-width="0.5"/>
<line x1="509.75" y1="700" x2="509.75" stroke="white" stroke-opacity="0.1" stroke-width="0.5"/>
<line x1="519.75" y1="700" x2="519.75" stroke="white" stroke-opacity="0.1" stroke-width="0.5"/>
<line x1="529.75" y1="700" x2="529.75" stroke="white" stroke-opacity="0.1" stroke-width="0.5"/>
<line x1="539.75" y1="700" x2="539.75" stroke="white" stroke-opacity="0.1" stroke-width="0.5"/>
<line x1="549.75" y1="700" x2="549.75" stroke="white" stroke-opacity="0.1" stroke-width="0.5"/>
<line x1="559.75" y1="700" x2="559.75" stroke="white" stroke-opacity="0.1" stroke-width="0.5"/>
<line x1="569.75" y1="700" x2="569.75" stroke="white" stroke-opacity="0.1" stroke-width="0.5"/>
<line x1="579.75" y1="700" x2="579.75" stroke="white" stroke-opacity="0.1" stroke-width="0.5"/>
<line x1="589.75" y1="700" x2="589.75" stroke="white" stroke-opacity="0.1" stroke-width="0.5"/>
<line x1="599.75" y1="700" x2="599.75" stroke="white" stroke-opacity="0.3" stroke-width="0.5"/>
<line x1="609.75" y1="700" x2="609.75" stroke="white" stroke-opacity="0.1" stroke-width="0.5"/>
<line x1="619.75" y1="700" x2="619.75" stroke="white" stroke-opacity="0.1" stroke-width="0.5"/>
<line x1="629.75" y1="700" x2="629.75" stroke="white" stroke-opacity="0.1" stroke-width="0.5"/>
<line x1="639.75" y1="700" x2="639.75" stroke="white" stroke-opacity="0.1" stroke-width="0.5"/>
<line x1="649.75" y1="700" x2="649.75" stroke="white" stroke-opacity="0.1" stroke-width="0.5"/>
<line x1="659.75" y1="700" x2="659.75" stroke="white" stroke-opacity="0.1" stroke-width="0.5"/>
<line x1="669.75" y1="700" x2="669.75" stroke="white" stroke-opacity="0.1" stroke-width="0.5"/>
<line x1="679.75" y1="700" x2="679.75" stroke="white" stroke-opacity="0.1" stroke-width="0.5"/>
<line x1="689.75" y1="700" x2="689.75" stroke="white" stroke-opacity="0.1" stroke-width="0.5"/>
<line x1="699.75" y1="700" x2="699.75" stroke="white" stroke-opacity="0.3" stroke-width="0.5"/>
<line x1="709.75" y1="700" x2="709.75" stroke="white" stroke-opacity="0.1" stroke-width="0.5"/>
<line x1="719.75" y1="700" x2="719.75" stroke="white" stroke-opacity="0.1" stroke-width="0.5"/>
<line x1="729.75" y1="700" x2="729.75" stroke="white" stroke-opacity="0.1" stroke-width="0.5"/>
<line x1="739.75" y1="700" x2="739.75" stroke="white" stroke-opacity="0.1" stroke-width="0.5"/>
<line x1="749.75" y1="700" x2="749.75" stroke="white" stroke-opacity="0.1" stroke-width="0.5"/>
<line x1="759.75" y1="700" x2="759.75" stroke="white" stroke-opacity="0.1" stroke-width="0.5"/>
<line x1="769.75" y1="700" x2="769.75" stroke="white" stroke-opacity="0.1" stroke-width="0.5"/>
<line x1="779.75" y1="700" x2="779.75" stroke="white" stroke-opacity="0.1" stroke-width="0.5"/>
<line x1="789.75" y1="700" x2="789.75" stroke="white" stroke-opacity="0.1" stroke-width="0.5"/>
<line x1="799.75" y1="700" x2="799.75" stroke="white" stroke-opacity="0.3" stroke-width="0.5"/>
<line x1="809.75" y1="700" x2="809.75" stroke="white" stroke-opacity="0.1" stroke-width="0.5"/>
<line x1="819.75" y1="700" x2="819.75" stroke="white" stroke-opacity="0.1" stroke-width="0.5"/>
<line x1="829.75" y1="700" x2="829.75" stroke="white" stroke-opacity="0.1" stroke-width="0.5"/>
<line x1="839.75" y1="700" x2="839.75" stroke="white" stroke-opacity="0.1" stroke-width="0.5"/>
<line x1="849.75" y1="700" x2="849.75" stroke="white" stroke-opacity="0.1" stroke-width="0.5"/>
<line x1="859.75" y1="700" x2="859.75" stroke="white" stroke-opacity="0.1" stroke-width="0.5"/>
<line x1="869.75" y1="700" x2="869.75" stroke="white" stroke-opacity="0.1" stroke-width="0.5"/>
<line x1="879.75" y1="700" x2="879.75" stroke="white" stroke-opacity="0.1" stroke-width="0.5"/>
<line x1="889.75" y1="700" x2="889.75" stroke="white" stroke-opacity="0.1" stroke-width="0.5"/>
<line x1="899.75" y1="700" x2="899.75" stroke="white" stroke-opacity="0.3" stroke-width="0.5"/>
<line x1="909.75" y1="700" x2="909.75" stroke="white" stroke-opacity="0.1" stroke-width="0.5"/>
<line x1="919.75" y1="700" x2="919.75" stroke="white" stroke-opacity="0.1" stroke-width="0.5"/>
<line x1="929.75" y1="700" x2="929.75" stroke="white" stroke-opacity="0.1" stroke-width="0.5"/>
<line x1="939.75" y1="700" x2="939.75" stroke="white" stroke-opacity="0.1" stroke-width="0.5"/>
<line x1="949.75" y1="700" x2="949.75" stroke="white" stroke-opacity="0.1" stroke-width="0.5"/>
<line x1="959.75" y1="700" x2="959.75" stroke="white" stroke-opacity="0.1" stroke-width="0.5"/>
<line x1="969.75" y1="700" x2="969.75" stroke="white" stroke-opacity="0.1" stroke-width="0.5"/>
<line x1="979.75" y1="700" x2="979.75" stroke="white" stroke-opacity="0.1" stroke-width="0.5"/>
<line x1="989.75" y1="700" x2="989.75" stroke="white" stroke-opacity="0.1" stroke-width="0.5"/>
<line x1="999.75" y1="700" x2="999.75" stroke="white" stroke-opacity="0.3" stroke-width="0.5"/>
<line x1="1009.75" y1="700" x2="1009.75" stroke="white" stroke-opacity="0.1" stroke-width="0.5"/>
<line x1="1019.75" y1="700" x2="1019.75" stroke="white" stroke-opacity="0.1" stroke-width="0.5"/>
<line x1="1029.75" y1="700" x2="1029.75" stroke="white" stroke-opacity="0.1" stroke-width="0.5"/>
<line x1="1039.75" y1="700" x2="1039.75" stroke="white" stroke-opacity="0.1" stroke-width="0.5"/>
<line x1="1049.75" y1="700" x2="1049.75" stroke="white" stroke-opacity="0.1" stroke-width="0.5"/>
<line x1="1059.75" y1="700" x2="1059.75" stroke="white" stroke-opacity="0.1" stroke-width="0.5"/>
<line x1="1069.75" y1="700" x2="1069.75" stroke="white" stroke-opacity="0.1" stroke-width="0.5"/>
<line x1="1079.75" y1="700" x2="1079.75" stroke="white" stroke-opacity="0.1" stroke-width="0.5"/>
<line x1="1089.75" y1="700" x2="1089.75" stroke="white" stroke-opacity="0.1" stroke-width="0.5"/>
<line x1="1099.75" y1="700" x2="1099.75" stroke="white" stroke-opacity="0.3" stroke-width="0.5"/>
<line x1="1109.75" y1="700" x2="1109.75" stroke="white" stroke-opacity="0.1" stroke-width="0.5"/>
<line x1="1119.75" y1="700" x2="1119.75" stroke="white" stroke-opacity="0.1" stroke-width="0.5"/>
<line x1="1129.75" y1="700" x2="1129.75" stroke="white" stroke-opacity="0.1" stroke-width="0.5"/>
<line x1="1139.75" y1="700" x2="1139.75" stroke="white" stroke-opacity="0.1" stroke-width="0.5"/>
<line x1="1149.75" y1="700" x2="1149.75" stroke="white" stroke-opacity="0.1" stroke-width="0.5"/>
<line x1="1159.75" y1="700" x2="1159.75" stroke="white" stroke-opacity="0.1" stroke-width="0.5"/>
<line x1="1169.75" y1="700" x2="1169.75" stroke="white" stroke-opacity="0.1" stroke-width="0.5"/>
<line x1="1179.75" y1="700" x2="1179.75" stroke="white" stroke-opacity="0.1" stroke-width="0.5"/>
<line x1="1189.75" y1="700" x2="1189.75" stroke="white" stroke-opacity="0.1" stroke-width="0.5"/>
<line x1="1199.75" y1="700" x2="1199.75" stroke="white" stroke-opacity="0.3" stroke-width="0.5"/>
<line x1="1209.75" y1="700" x2="1209.75" stroke="white" stroke-opacity="0.1" stroke-width="0.5"/>
<line x1="1219.75" y1="700" x2="1219.75" stroke="white" stroke-opacity="0.1" stroke-width="0.5"/>
<line x1="1229.75" y1="700" x2="1229.75" stroke="white" stroke-opacity="0.1" stroke-width="0.5"/>
<line x1="1239.75" y1="700" x2="1239.75" stroke="white" stroke-opacity="0.1" stroke-width="0.5"/>
<line x1="1249.75" y1="700" x2="1249.75" stroke="white" stroke-opacity="0.1" stroke-width="0.5"/>
<line x1="1259.75" y1="700" x2="1259.75" stroke="white" stroke-opacity="0.1" stroke-width="0.5"/>
<line x1="1269.75" y1="700" x2="1269.75" stroke="white" stroke-opacity="0.1" stroke-width="0.5"/>
<line x1="1279.75" y1="700" x2="1279.75" stroke="white" stroke-opacity="0.1" stroke-width="0.5"/>
<line x1="1289.75" y1="700" x2="1289.75" stroke="white" stroke-opacity="0.1" stroke-width="0.5"/>
<line x1="1299.75" y1="700" x2="1299.75" stroke="white" stroke-opacity="0.1" stroke-width="0.5"/>
<line x1="-0.00170898" y1="69.75" x2="1310" y2="69.75" stroke="white" stroke-opacity="0.1" stroke-width="0.5"/>
<line x1="-0.00170898" y1="79.75" x2="1310" y2="79.75" stroke="white" stroke-opacity="0.1" stroke-width="0.5"/>
<line x1="-0.00170898" y1="89.75" x2="1310" y2="89.75" stroke="white" stroke-opacity="0.1" stroke-width="0.5"/>
<line x1="-0.00170898" y1="99.75" x2="1310" y2="99.75" stroke="white" stroke-opacity="0.3" stroke-width="0.5"/>
<line x1="-0.00170898" y1="109.75" x2="1310" y2="109.75" stroke="white" stroke-opacity="0.1" stroke-width="0.5"/>
<line x1="-0.00170898" y1="119.75" x2="1310" y2="119.75" stroke="white" stroke-opacity="0.1" stroke-width="0.5"/>
<line x1="-0.00170898" y1="129.75" x2="1310" y2="129.75" stroke="white" stroke-opacity="0.1" stroke-width="0.5"/>
<line x1="-0.00170898" y1="139.75" x2="1310" y2="139.75" stroke="white" stroke-opacity="0.1" stroke-width="0.5"/>
<line x1="-0.00170898" y1="149.75" x2="1310" y2="149.75" stroke="white" stroke-opacity="0.1" stroke-width="0.5"/>
<line x1="-0.00170898" y1="159.75" x2="1310" y2="159.75" stroke="white" stroke-opacity="0.1" stroke-width="0.5"/>
<line x1="-0.00170898" y1="169.75" x2="1310" y2="169.75" stroke="white" stroke-opacity="0.1" stroke-width="0.5"/>
<line x1="-0.00170898" y1="179.75" x2="1310" y2="179.75" stroke="white" stroke-opacity="0.1" stroke-width="0.5"/>
<line x1="-0.00170898" y1="189.75" x2="1310" y2="189.75" stroke="white" stroke-opacity="0.1" stroke-width="0.5"/>
<line x1="-0.00170898" y1="199.75" x2="1310" y2="199.75" stroke="white" stroke-opacity="0.3" stroke-width="0.5"/>
<line x1="-0.00170898" y1="209.75" x2="1310" y2="209.75" stroke="white" stroke-opacity="0.1" stroke-width="0.5"/>
<line x1="-0.00170898" y1="219.75" x2="1310" y2="219.75" stroke="white" stroke-opacity="0.1" stroke-width="0.5"/>
<line x1="-0.00170898" y1="229.75" x2="1310" y2="229.75" stroke="white" stroke-opacity="0.1" stroke-width="0.5"/>
<line x1="-0.00170898" y1="239.75" x2="1310" y2="239.75" stroke="white" stroke-opacity="0.1" stroke-width="0.5"/>
<line x1="-0.00170898" y1="249.75" x2="1310" y2="249.75" stroke="white" stroke-opacity="0.1" stroke-width="0.5"/>
<line x1="-0.00170898" y1="259.75" x2="1310" y2="259.75" stroke="white" stroke-opacity="0.1" stroke-width="0.5"/>
<line x1="-0.00170898" y1="269.75" x2="1310" y2="269.75" stroke="white" stroke-opacity="0.1" stroke-width="0.5"/>
<line x1="-0.00170898" y1="279.75" x2="1310" y2="279.75" stroke="white" stroke-opacity="0.1" stroke-width="0.5"/>
<line x1="-0.00170898" y1="289.75" x2="1310" y2="289.75" stroke="white" stroke-opacity="0.1" stroke-width="0.5"/>
<line x1="-0.00170898" y1="299.75" x2="1310" y2="299.75" stroke="white" stroke-opacity="0.3" stroke-width="0.5"/>
<line x1="-0.00170898" y1="309.75" x2="1310" y2="309.75" stroke="white" stroke-opacity="0.1" stroke-width="0.5"/>
<line x1="-0.00170898" y1="319.75" x2="1310" y2="319.75" stroke="white" stroke-opacity="0.1" stroke-width="0.5"/>
<line x1="-0.00170898" y1="329.75" x2="1310" y2="329.75" stroke="white" stroke-opacity="0.1" stroke-width="0.5"/>
<line x1="-0.00170898" y1="339.75" x2="1310" y2="339.75" stroke="white" stroke-opacity="0.1" stroke-width="0.5"/>
<line x1="-0.00170898" y1="349.75" x2="1310" y2="349.75" stroke="white" stroke-opacity="0.1" stroke-width="0.5"/>
<line x1="-0.00170898" y1="359.75" x2="1310" y2="359.75" stroke="white" stroke-opacity="0.1" stroke-width="0.5"/>
<line x1="-0.00170898" y1="369.75" x2="1310" y2="369.75" stroke="white" stroke-opacity="0.1" stroke-width="0.5"/>
<line x1="-0.00170898" y1="379.75" x2="1310" y2="379.75" stroke="white" stroke-opacity="0.1" stroke-width="0.5"/>
<line x1="-0.00170898" y1="389.75" x2="1310" y2="389.75" stroke="white" stroke-opacity="0.1" stroke-width="0.5"/>
<line x1="-0.00170898" y1="399.75" x2="1310" y2="399.75" stroke="white" stroke-opacity="0.3" stroke-width="0.5"/>
<line x1="-0.00170898" y1="409.75" x2="1310" y2="409.75" stroke="white" stroke-opacity="0.1" stroke-width="0.5"/>
<line x1="-0.00170898" y1="419.75" x2="1310" y2="419.75" stroke="white" stroke-opacity="0.1" stroke-width="0.5"/>
<line x1="-0.00170898" y1="429.75" x2="1310" y2="429.75" stroke="white" stroke-opacity="0.1" stroke-width="0.5"/>
<line x1="-0.00170898" y1="439.75" x2="1310" y2="439.75" stroke="white" stroke-opacity="0.1" stroke-width="0.5"/>
<line x1="-0.00170898" y1="449.75" x2="1310" y2="449.75" stroke="white" stroke-opacity="0.1" stroke-width="0.5"/>
<line x1="-0.00170898" y1="459.75" x2="1310" y2="459.75" stroke="white" stroke-opacity="0.1" stroke-width="0.5"/>
<line x1="-0.00170898" y1="469.75" x2="1310" y2="469.75" stroke="white" stroke-opacity="0.1" stroke-width="0.5"/>
<line x1="-0.00170898" y1="479.75" x2="1310" y2="479.75" stroke="white" stroke-opacity="0.1" stroke-width="0.5"/>
<line x1="-0.00170898" y1="489.75" x2="1310" y2="489.75" stroke="white" stroke-opacity="0.1" stroke-width="0.5"/>
<line x1="-0.00170898" y1="499.75" x2="1310" y2="499.75" stroke="white" stroke-opacity="0.3" stroke-width="0.5"/>
<line x1="-0.00170898" y1="509.75" x2="1310" y2="509.75" stroke="white" stroke-opacity="0.1" stroke-width="0.5"/>
<line x1="-0.00170898" y1="519.75" x2="1310" y2="519.75" stroke="white" stroke-opacity="0.1" stroke-width="0.5"/>
<line x1="-0.00170898" y1="529.75" x2="1310" y2="529.75" stroke="white" stroke-opacity="0.1" stroke-width="0.5"/>
<line x1="-0.00170898" y1="539.75" x2="1310" y2="539.75" stroke="white" stroke-opacity="0.1" stroke-width="0.5"/>
<line x1="-0.00170898" y1="549.75" x2="1310" y2="549.75" stroke="white" stroke-opacity="0.1" stroke-width="0.5"/>
<line x1="-0.00170898" y1="559.75" x2="1310" y2="559.75" stroke="white" stroke-opacity="0.1" stroke-width="0.5"/>
<line x1="-0.00170898" y1="569.75" x2="1310" y2="569.75" stroke="white" stroke-opacity="0.1" stroke-width="0.5"/>
<line x1="-0.00170898" y1="579.75" x2="1310" y2="579.75" stroke="white" stroke-opacity="0.1" stroke-width="0.5"/>
<line x1="-0.00170898" y1="589.75" x2="1310" y2="589.75" stroke="white" stroke-opacity="0.1" stroke-width="0.5"/>
<line x1="-0.00170898" y1="599.75" x2="1310" y2="599.75" stroke="white" stroke-opacity="0.3" stroke-width="0.5"/>
<line x1="-0.00170898" y1="609.75" x2="1310" y2="609.75" stroke="white" stroke-opacity="0.1" stroke-width="0.5"/>
<line x1="-0.00170898" y1="619.75" x2="1310" y2="619.75" stroke="white" stroke-opacity="0.1" stroke-width="0.5"/>
<line x1="-0.00170898" y1="629.75" x2="1310" y2="629.75" stroke="white" stroke-opacity="0.1" stroke-width="0.5"/>
<line x1="-0.00170898" y1="639.75" x2="1310" y2="639.75" stroke="white" stroke-opacity="0.1" stroke-width="0.5"/>
<line x1="-0.00170898" y1="649.75" x2="1310" y2="649.75" stroke="white" stroke-opacity="0.1" stroke-width="0.5"/>
<line x1="-0.00170898" y1="659.75" x2="1310" y2="659.75" stroke="white" stroke-opacity="0.1" stroke-width="0.5"/>
<line x1="-0.00170898" y1="669.75" x2="1310" y2="669.75" stroke="white" stroke-opacity="0.1" stroke-width="0.5"/>
<line x1="-0.00170898" y1="679.75" x2="1310" y2="679.75" stroke="white" stroke-opacity="0.1" stroke-width="0.5"/>
<line x1="-0.00170898" y1="689.75" x2="1310" y2="689.75" stroke="white" stroke-opacity="0.1" stroke-width="0.5"/>
<line x1="4.005e-05" y1="59.75" x2="1310" y2="59.75" stroke="white" stroke-opacity="0.1" stroke-width="0.5"/>
<line x1="4.005e-05" y1="49.75" x2="1310" y2="49.75" stroke="white" stroke-opacity="0.1" stroke-width="0.5"/>
<line x1="4.005e-05" y1="39.75" x2="1310" y2="39.75" stroke="white" stroke-opacity="0.1" stroke-width="0.5"/>
<line x1="4.005e-05" y1="29.75" x2="1310" y2="29.75" stroke="white" stroke-opacity="0.1" stroke-width="0.5"/>
<line x1="4.005e-05" y1="19.75" x2="1310" y2="19.75" stroke="white" stroke-opacity="0.1" stroke-width="0.5"/>
<line x1="4.005e-05" y1="9.75" x2="1310" y2="9.75" stroke="white" stroke-opacity="0.1" stroke-width="0.5"/>
<rect width="1310" height="700" fill="url(#paint1_radial_15_2)" fill-opacity="0.5"/>
<path d="M128.013 396L177.933 284H203.533L253.613 396H226.413L185.453 297.12H195.693L154.573 396H128.013ZM152.973 372L159.853 352.32H217.453L224.493 372H152.973ZM314.353 397.28C307.1 397.28 300.753 395.68 295.313 392.48C289.873 389.28 285.606 384.427 282.513 377.92C279.526 371.307 278.033 362.987 278.033 352.96C278.033 342.827 279.473 334.507 282.353 328C285.233 321.493 289.393 316.64 294.833 313.44C300.273 310.24 306.78 308.64 314.353 308.64C322.46 308.64 329.713 310.507 336.113 314.24C342.62 317.867 347.74 322.987 351.473 329.6C355.313 336.213 357.233 344 357.233 352.96C357.233 362.027 355.313 369.867 351.473 376.48C347.74 383.093 342.62 388.213 336.113 391.84C329.713 395.467 322.46 397.28 314.353 397.28ZM263.473 427.04V309.92H287.313V327.52L286.833 353.12L288.433 378.56V427.04H263.473ZM310.033 376.8C314.193 376.8 317.873 375.84 321.073 373.92C324.38 372 326.993 369.28 328.913 365.76C330.94 362.133 331.953 357.867 331.953 352.96C331.953 347.947 330.94 343.68 328.913 340.16C326.993 336.64 324.38 333.92 321.073 332C317.873 330.08 314.193 329.12 310.033 329.12C305.873 329.12 302.14 330.08 298.833 332C295.526 333.92 292.913 336.64 290.993 340.16C289.073 343.68 288.113 347.947 288.113 352.96C288.113 357.867 289.073 362.133 290.993 365.76C292.913 369.28 295.526 372 298.833 373.92C302.14 375.84 305.873 376.8 310.033 376.8ZM424.822 397.28C417.569 397.28 411.222 395.68 405.782 392.48C400.342 389.28 396.075 384.427 392.982 377.92C389.995 371.307 388.502 362.987 388.502 352.96C388.502 342.827 389.942 334.507 392.822 328C395.702 321.493 399.862 316.64 405.302 313.44C410.742 310.24 417.249 308.64 424.822 308.64C432.929 308.64 440.182 310.507 446.582 314.24C453.089 317.867 458.209 322.987 461.942 329.6C465.782 336.213 467.702 344 467.702 352.96C467.702 362.027 465.782 369.867 461.942 376.48C458.209 383.093 453.089 388.213 446.582 391.84C440.182 395.467 432.929 397.28 424.822 397.28ZM373.942 427.04V309.92H397.782V327.52L397.302 353.12L398.902 378.56V427.04H373.942ZM420.502 376.8C424.662 376.8 428.342 375.84 431.542 373.92C434.849 372 437.462 369.28 439.382 365.76C441.409 362.133 442.422 357.867 442.422 352.96C442.422 347.947 441.409 343.68 439.382 340.16C437.462 336.64 434.849 333.92 431.542 332C428.342 330.08 424.662 329.12 420.502 329.12C416.342 329.12 412.609 330.08 409.302 332C405.995 333.92 403.382 336.64 401.462 340.16C399.542 343.68 398.582 347.947 398.582 352.96C398.582 357.867 399.542 362.133 401.462 365.76C403.382 369.28 405.995 372 409.302 373.92C412.609 375.84 416.342 376.8 420.502 376.8ZM484.411 396V277.28H509.371V396H484.411ZM532.536 396V309.92H557.496V396H532.536ZM545.016 297.92C540.429 297.92 536.696 296.587 533.816 293.92C530.936 291.253 529.496 287.947 529.496 284C529.496 280.053 530.936 276.747 533.816 274.08C536.696 271.413 540.429 270.08 545.016 270.08C549.602 270.08 553.336 271.36 556.216 273.92C559.096 276.373 560.536 279.573 560.536 283.52C560.536 287.68 559.096 291.147 556.216 293.92C553.442 296.587 549.709 297.92 545.016 297.92ZM622.261 397.28C612.981 397.28 604.714 395.413 597.461 391.68C590.207 387.84 584.501 382.56 580.341 375.84C576.287 369.12 574.261 361.493 574.261 352.96C574.261 344.32 576.287 336.693 580.341 330.08C584.501 323.36 590.207 318.133 597.461 314.4C604.714 310.56 612.981 308.64 622.261 308.64C631.327 308.64 639.221 310.56 645.941 314.4C652.661 318.133 657.621 323.52 660.821 330.56L641.461 340.96C639.221 336.907 636.394 333.92 632.981 332C629.674 330.08 626.047 329.12 622.101 329.12C617.834 329.12 613.994 330.08 610.581 332C607.167 333.92 604.447 336.64 602.421 340.16C600.501 343.68 599.541 347.947 599.541 352.96C599.541 357.973 600.501 362.24 602.421 365.76C604.447 369.28 607.167 372 610.581 373.92C613.994 375.84 617.834 376.8 622.101 376.8C626.047 376.8 629.674 375.893 632.981 374.08C636.394 372.16 639.221 369.12 641.461 364.96L660.821 375.52C657.621 382.453 652.661 387.84 645.941 391.68C639.221 395.413 631.327 397.28 622.261 397.28ZM727.992 396V379.2L726.392 375.52V345.44C726.392 340.107 724.739 335.947 721.432 332.96C718.232 329.973 713.272 328.48 706.552 328.48C701.965 328.48 697.432 329.227 692.952 330.72C688.579 332.107 684.845 334.027 681.752 336.48L672.792 319.04C677.485 315.733 683.139 313.173 689.752 311.36C696.365 309.547 703.085 308.64 709.912 308.64C723.032 308.64 733.219 311.733 740.472 317.92C747.725 324.107 751.352 333.76 751.352 346.88V396H727.992ZM701.752 397.28C695.032 397.28 689.272 396.16 684.472 393.92C679.672 391.573 675.992 388.427 673.432 384.48C670.872 380.533 669.592 376.107 669.592 371.2C669.592 366.08 670.819 361.6 673.272 357.76C675.832 353.92 679.832 350.933 685.272 348.8C690.712 346.56 697.805 345.44 706.552 345.44H729.432V360H709.272C703.405 360 699.352 360.96 697.112 362.88C694.979 364.8 693.912 367.2 693.912 370.08C693.912 373.28 695.139 375.84 697.592 377.76C700.152 379.573 703.619 380.48 707.992 380.48C712.152 380.48 715.885 379.52 719.192 377.6C722.499 375.573 724.899 372.64 726.392 368.8L730.232 380.32C728.419 385.867 725.112 390.08 720.312 392.96C715.512 395.84 709.325 397.28 701.752 397.28ZM809.142 397.28C799.009 397.28 791.115 394.72 785.462 389.6C779.809 384.373 776.982 376.64 776.982 366.4V290.88H801.942V366.08C801.942 369.707 802.902 372.533 804.822 374.56C806.742 376.48 809.355 377.44 812.662 377.44C816.609 377.44 819.969 376.373 822.742 374.24L829.462 391.84C826.902 393.653 823.809 395.04 820.182 396C816.662 396.853 812.982 397.28 809.142 397.28ZM763.702 331.04V311.84H823.382V331.04H763.702ZM843.473 396V309.92H868.433V396H843.473ZM855.953 297.92C851.366 297.92 847.633 296.587 844.753 293.92C841.873 291.253 840.433 287.947 840.433 284C840.433 280.053 841.873 276.747 844.753 274.08C847.633 271.413 851.366 270.08 855.953 270.08C860.54 270.08 864.273 271.36 867.153 273.92C870.033 276.373 871.473 279.573 871.473 283.52C871.473 287.68 870.033 291.147 867.153 293.92C864.38 296.587 860.646 297.92 855.953 297.92ZM932.558 397.28C923.385 397.28 915.225 395.36 908.078 391.52C901.038 387.68 895.438 382.453 891.278 375.84C887.225 369.12 885.198 361.493 885.198 352.96C885.198 344.32 887.225 336.693 891.278 330.08C895.438 323.36 901.038 318.133 908.078 314.4C915.225 310.56 923.385 308.64 932.558 308.64C941.625 308.64 949.731 310.56 956.878 314.4C964.025 318.133 969.625 323.307 973.678 329.92C977.731 336.533 979.758 344.213 979.758 352.96C979.758 361.493 977.731 369.12 973.678 375.84C969.625 382.453 964.025 387.68 956.878 391.52C949.731 395.36 941.625 397.28 932.558 397.28ZM932.558 376.8C936.718 376.8 940.451 375.84 943.758 373.92C947.065 372 949.678 369.28 951.598 365.76C953.518 362.133 954.478 357.867 954.478 352.96C954.478 347.947 953.518 343.68 951.598 340.16C949.678 336.64 947.065 333.92 943.758 332C940.451 330.08 936.718 329.12 932.558 329.12C928.398 329.12 924.665 330.08 921.358 332C918.051 333.92 915.385 336.64 913.358 340.16C911.438 343.68 910.478 347.947 910.478 352.96C910.478 357.867 911.438 362.133 913.358 365.76C915.385 369.28 918.051 372 921.358 373.92C924.665 375.84 928.398 376.8 932.558 376.8ZM1048.76 308.64C1055.59 308.64 1061.67 310.027 1067 312.8C1072.44 315.467 1076.71 319.627 1079.8 325.28C1082.9 330.827 1084.44 337.973 1084.44 346.72V396H1059.48V350.56C1059.48 343.627 1057.94 338.507 1054.84 335.2C1051.86 331.893 1047.59 330.24 1042.04 330.24C1038.1 330.24 1034.52 331.093 1031.32 332.8C1028.23 334.4 1025.78 336.907 1023.96 340.32C1022.26 343.733 1021.4 348.107 1021.4 353.44V396H996.442V309.92H1020.28V333.76L1015.8 326.56C1018.9 320.8 1023.32 316.373 1029.08 313.28C1034.84 310.187 1041.4 308.64 1048.76 308.64ZM1136.03 397.28C1128.67 397.28 1121.57 396.427 1114.75 394.72C1108.03 392.907 1102.69 390.667 1098.75 388L1107.07 370.08C1111.01 372.533 1115.65 374.56 1120.99 376.16C1126.43 377.653 1131.76 378.4 1136.99 378.4C1142.75 378.4 1146.8 377.707 1149.15 376.32C1151.6 374.933 1152.83 373.013 1152.83 370.56C1152.83 368.533 1151.87 367.04 1149.95 366.08C1148.13 365.013 1145.68 364.213 1142.59 363.68C1139.49 363.147 1136.08 362.613 1132.35 362.08C1128.72 361.547 1125.04 360.853 1121.31 360C1117.57 359.04 1114.16 357.653 1111.07 355.84C1107.97 354.027 1105.47 351.573 1103.55 348.48C1101.73 345.387 1100.83 341.387 1100.83 336.48C1100.83 331.04 1102.37 326.24 1105.47 322.08C1108.67 317.92 1113.25 314.667 1119.23 312.32C1125.2 309.867 1132.35 308.64 1140.67 308.64C1146.53 308.64 1152.51 309.28 1158.59 310.56C1164.67 311.84 1169.73 313.707 1173.79 316.16L1165.47 333.92C1161.31 331.467 1157.09 329.813 1152.83 328.96C1148.67 328 1144.61 327.52 1140.67 327.52C1135.12 327.52 1131.07 328.267 1128.51 329.76C1125.95 331.253 1124.67 333.173 1124.67 335.52C1124.67 337.653 1125.57 339.253 1127.39 340.32C1129.31 341.387 1131.81 342.24 1134.91 342.88C1138 343.52 1141.36 344.107 1144.99 344.64C1148.72 345.067 1152.45 345.76 1156.19 346.72C1159.92 347.68 1163.28 349.067 1166.27 350.88C1169.36 352.587 1171.87 354.987 1173.79 358.08C1175.71 361.067 1176.67 365.013 1176.67 369.92C1176.67 375.253 1175.07 380 1171.87 384.16C1168.67 388.213 1164.03 391.413 1157.95 393.76C1151.97 396.107 1144.67 397.28 1136.03 397.28Z" fill="url(#paint2_linear_15_2)"/>
<path d="M239.378 420H129.02V416.191H239.378V420ZM1177.42 420H420.935V416.191H1177.42V420Z" fill="url(#paint3_linear_15_2)"/>
<defs>
<linearGradient id="paint0_linear_15_2" x1="655" y1="0" x2="655" y2="700" gradientUnits="userSpaceOnUse">
<stop stop-color="#090A16"/>
<stop offset="1" stop-color="#030306"/>
</linearGradient>
<radialGradient id="paint1_radial_15_2" cx="0" cy="0" r="1" gradientUnits="userSpaceOnUse" gradientTransform="translate(655 350) rotate(90) scale(350 655)">
<stop stop-color="#090A16"/>
<stop offset="1" stop-color="#030306"/>
</radialGradient>
<linearGradient id="paint2_linear_15_2" x1="113" y1="241" x2="1015.89" y2="750.776" gradientUnits="userSpaceOnUse">
<stop stop-color="white"/>
<stop offset="1" stop-color="#D4D4D4"/>
</linearGradient>
<linearGradient id="paint3_linear_15_2" x1="129.02" y1="418.096" x2="1177.42" y2="418.096" gradientUnits="userSpaceOnUse">
<stop stop-color="#5170FF"/>
<stop offset="1" stop-color="#FF66C4"/>
</linearGradient>
</defs>
</svg>
