<svg width="1310" height="700" viewBox="0 0 1310 700" fill="none" xmlns="http://www.w3.org/2000/svg">
<rect width="1310" height="700" fill="url(#paint0_linear_16_419)"/>
<line x1="9.75" y1="700" x2="9.75" stroke="white" stroke-opacity="0.1" stroke-width="0.5"/>
<line x1="19.75" y1="700" x2="19.75" stroke="white" stroke-opacity="0.1" stroke-width="0.5"/>
<line x1="29.75" y1="700" x2="29.75" stroke="white" stroke-opacity="0.1" stroke-width="0.5"/>
<line x1="39.75" y1="700" x2="39.75" stroke="white" stroke-opacity="0.1" stroke-width="0.5"/>
<line x1="49.75" y1="700" x2="49.75" stroke="white" stroke-opacity="0.1" stroke-width="0.5"/>
<line x1="59.75" y1="700" x2="59.75" stroke="white" stroke-opacity="0.1" stroke-width="0.5"/>
<line x1="69.75" y1="700" x2="69.75" stroke="white" stroke-opacity="0.1" stroke-width="0.5"/>
<line x1="79.75" y1="700" x2="79.75" stroke="white" stroke-opacity="0.1" stroke-width="0.5"/>
<line x1="89.75" y1="700" x2="89.75" stroke="white" stroke-opacity="0.1" stroke-width="0.5"/>
<line x1="99.75" y1="700" x2="99.75" stroke="white" stroke-opacity="0.3" stroke-width="0.5"/>
<line x1="109.75" y1="700" x2="109.75" stroke="white" stroke-opacity="0.1" stroke-width="0.5"/>
<line x1="119.75" y1="700" x2="119.75" stroke="white" stroke-opacity="0.1" stroke-width="0.5"/>
<line x1="129.75" y1="700" x2="129.75" stroke="white" stroke-opacity="0.1" stroke-width="0.5"/>
<line x1="139.75" y1="700" x2="139.75" stroke="white" stroke-opacity="0.1" stroke-width="0.5"/>
<line x1="149.75" y1="700" x2="149.75" stroke="white" stroke-opacity="0.1" stroke-width="0.5"/>
<line x1="159.75" y1="700" x2="159.75" stroke="white" stroke-opacity="0.1" stroke-width="0.5"/>
<line x1="169.75" y1="700" x2="169.75" stroke="white" stroke-opacity="0.1" stroke-width="0.5"/>
<line x1="179.75" y1="700" x2="179.75" stroke="white" stroke-opacity="0.1" stroke-width="0.5"/>
<line x1="189.75" y1="700" x2="189.75" stroke="white" stroke-opacity="0.1" stroke-width="0.5"/>
<line x1="199.75" y1="700" x2="199.75" stroke="white" stroke-opacity="0.3" stroke-width="0.5"/>
<line x1="209.75" y1="700" x2="209.75" stroke="white" stroke-opacity="0.1" stroke-width="0.5"/>
<line x1="219.75" y1="700" x2="219.75" stroke="white" stroke-opacity="0.1" stroke-width="0.5"/>
<line x1="229.75" y1="700" x2="229.75" stroke="white" stroke-opacity="0.1" stroke-width="0.5"/>
<line x1="239.75" y1="700" x2="239.75" stroke="white" stroke-opacity="0.1" stroke-width="0.5"/>
<line x1="249.75" y1="700" x2="249.75" stroke="white" stroke-opacity="0.1" stroke-width="0.5"/>
<line x1="259.75" y1="700" x2="259.75" stroke="white" stroke-opacity="0.1" stroke-width="0.5"/>
<line x1="269.75" y1="700" x2="269.75" stroke="white" stroke-opacity="0.1" stroke-width="0.5"/>
<line x1="279.75" y1="700" x2="279.75" stroke="white" stroke-opacity="0.1" stroke-width="0.5"/>
<line x1="289.75" y1="700" x2="289.75" stroke="white" stroke-opacity="0.1" stroke-width="0.5"/>
<line x1="299.75" y1="700" x2="299.75" stroke="white" stroke-opacity="0.3" stroke-width="0.5"/>
<line x1="309.75" y1="700" x2="309.75" stroke="white" stroke-opacity="0.1" stroke-width="0.5"/>
<line x1="319.75" y1="700" x2="319.75" stroke="white" stroke-opacity="0.1" stroke-width="0.5"/>
<line x1="329.75" y1="700" x2="329.75" stroke="white" stroke-opacity="0.1" stroke-width="0.5"/>
<line x1="339.75" y1="700" x2="339.75" stroke="white" stroke-opacity="0.1" stroke-width="0.5"/>
<line x1="349.75" y1="700" x2="349.75" stroke="white" stroke-opacity="0.1" stroke-width="0.5"/>
<line x1="359.75" y1="700" x2="359.75" stroke="white" stroke-opacity="0.1" stroke-width="0.5"/>
<line x1="369.75" y1="700" x2="369.75" stroke="white" stroke-opacity="0.1" stroke-width="0.5"/>
<line x1="379.75" y1="700" x2="379.75" stroke="white" stroke-opacity="0.1" stroke-width="0.5"/>
<line x1="389.75" y1="700" x2="389.75" stroke="white" stroke-opacity="0.1" stroke-width="0.5"/>
<line x1="399.75" y1="700" x2="399.75" stroke="white" stroke-opacity="0.3" stroke-width="0.5"/>
<line x1="409.75" y1="700" x2="409.75" stroke="white" stroke-opacity="0.1" stroke-width="0.5"/>
<line x1="419.75" y1="700" x2="419.75" stroke="white" stroke-opacity="0.1" stroke-width="0.5"/>
<line x1="429.75" y1="700" x2="429.75" stroke="white" stroke-opacity="0.1" stroke-width="0.5"/>
<line x1="439.75" y1="700" x2="439.75" stroke="white" stroke-opacity="0.1" stroke-width="0.5"/>
<line x1="449.75" y1="700" x2="449.75" stroke="white" stroke-opacity="0.1" stroke-width="0.5"/>
<line x1="459.75" y1="700" x2="459.75" stroke="white" stroke-opacity="0.1" stroke-width="0.5"/>
<line x1="469.75" y1="700" x2="469.75" stroke="white" stroke-opacity="0.1" stroke-width="0.5"/>
<line x1="479.75" y1="700" x2="479.75" stroke="white" stroke-opacity="0.1" stroke-width="0.5"/>
<line x1="489.75" y1="700" x2="489.75" stroke="white" stroke-opacity="0.1" stroke-width="0.5"/>
<line x1="499.75" y1="700" x2="499.75" stroke="white" stroke-opacity="0.3" stroke-width="0.5"/>
<line x1="509.75" y1="700" x2="509.75" stroke="white" stroke-opacity="0.1" stroke-width="0.5"/>
<line x1="519.75" y1="700" x2="519.75" stroke="white" stroke-opacity="0.1" stroke-width="0.5"/>
<line x1="529.75" y1="700" x2="529.75" stroke="white" stroke-opacity="0.1" stroke-width="0.5"/>
<line x1="539.75" y1="700" x2="539.75" stroke="white" stroke-opacity="0.1" stroke-width="0.5"/>
<line x1="549.75" y1="700" x2="549.75" stroke="white" stroke-opacity="0.1" stroke-width="0.5"/>
<line x1="559.75" y1="700" x2="559.75" stroke="white" stroke-opacity="0.1" stroke-width="0.5"/>
<line x1="569.75" y1="700" x2="569.75" stroke="white" stroke-opacity="0.1" stroke-width="0.5"/>
<line x1="579.75" y1="700" x2="579.75" stroke="white" stroke-opacity="0.1" stroke-width="0.5"/>
<line x1="589.75" y1="700" x2="589.75" stroke="white" stroke-opacity="0.1" stroke-width="0.5"/>
<line x1="599.75" y1="700" x2="599.75" stroke="white" stroke-opacity="0.3" stroke-width="0.5"/>
<line x1="609.75" y1="700" x2="609.75" stroke="white" stroke-opacity="0.1" stroke-width="0.5"/>
<line x1="619.75" y1="700" x2="619.75" stroke="white" stroke-opacity="0.1" stroke-width="0.5"/>
<line x1="629.75" y1="700" x2="629.75" stroke="white" stroke-opacity="0.1" stroke-width="0.5"/>
<line x1="639.75" y1="700" x2="639.75" stroke="white" stroke-opacity="0.1" stroke-width="0.5"/>
<line x1="649.75" y1="700" x2="649.75" stroke="white" stroke-opacity="0.1" stroke-width="0.5"/>
<line x1="659.75" y1="700" x2="659.75" stroke="white" stroke-opacity="0.1" stroke-width="0.5"/>
<line x1="669.75" y1="700" x2="669.75" stroke="white" stroke-opacity="0.1" stroke-width="0.5"/>
<line x1="679.75" y1="700" x2="679.75" stroke="white" stroke-opacity="0.1" stroke-width="0.5"/>
<line x1="689.75" y1="700" x2="689.75" stroke="white" stroke-opacity="0.1" stroke-width="0.5"/>
<line x1="699.75" y1="700" x2="699.75" stroke="white" stroke-opacity="0.3" stroke-width="0.5"/>
<line x1="709.75" y1="700" x2="709.75" stroke="white" stroke-opacity="0.1" stroke-width="0.5"/>
<line x1="719.75" y1="700" x2="719.75" stroke="white" stroke-opacity="0.1" stroke-width="0.5"/>
<line x1="729.75" y1="700" x2="729.75" stroke="white" stroke-opacity="0.1" stroke-width="0.5"/>
<line x1="739.75" y1="700" x2="739.75" stroke="white" stroke-opacity="0.1" stroke-width="0.5"/>
<line x1="749.75" y1="700" x2="749.75" stroke="white" stroke-opacity="0.1" stroke-width="0.5"/>
<line x1="759.75" y1="700" x2="759.75" stroke="white" stroke-opacity="0.1" stroke-width="0.5"/>
<line x1="769.75" y1="700" x2="769.75" stroke="white" stroke-opacity="0.1" stroke-width="0.5"/>
<line x1="779.75" y1="700" x2="779.75" stroke="white" stroke-opacity="0.1" stroke-width="0.5"/>
<line x1="789.75" y1="700" x2="789.75" stroke="white" stroke-opacity="0.1" stroke-width="0.5"/>
<line x1="799.75" y1="700" x2="799.75" stroke="white" stroke-opacity="0.3" stroke-width="0.5"/>
<line x1="809.75" y1="700" x2="809.75" stroke="white" stroke-opacity="0.1" stroke-width="0.5"/>
<line x1="819.75" y1="700" x2="819.75" stroke="white" stroke-opacity="0.1" stroke-width="0.5"/>
<line x1="829.75" y1="700" x2="829.75" stroke="white" stroke-opacity="0.1" stroke-width="0.5"/>
<line x1="839.75" y1="700" x2="839.75" stroke="white" stroke-opacity="0.1" stroke-width="0.5"/>
<line x1="849.75" y1="700" x2="849.75" stroke="white" stroke-opacity="0.1" stroke-width="0.5"/>
<line x1="859.75" y1="700" x2="859.75" stroke="white" stroke-opacity="0.1" stroke-width="0.5"/>
<line x1="869.75" y1="700" x2="869.75" stroke="white" stroke-opacity="0.1" stroke-width="0.5"/>
<line x1="879.75" y1="700" x2="879.75" stroke="white" stroke-opacity="0.1" stroke-width="0.5"/>
<line x1="889.75" y1="700" x2="889.75" stroke="white" stroke-opacity="0.1" stroke-width="0.5"/>
<line x1="899.75" y1="700" x2="899.75" stroke="white" stroke-opacity="0.3" stroke-width="0.5"/>
<line x1="909.75" y1="700" x2="909.75" stroke="white" stroke-opacity="0.1" stroke-width="0.5"/>
<line x1="919.75" y1="700" x2="919.75" stroke="white" stroke-opacity="0.1" stroke-width="0.5"/>
<line x1="929.75" y1="700" x2="929.75" stroke="white" stroke-opacity="0.1" stroke-width="0.5"/>
<line x1="939.75" y1="700" x2="939.75" stroke="white" stroke-opacity="0.1" stroke-width="0.5"/>
<line x1="949.75" y1="700" x2="949.75" stroke="white" stroke-opacity="0.1" stroke-width="0.5"/>
<line x1="959.75" y1="700" x2="959.75" stroke="white" stroke-opacity="0.1" stroke-width="0.5"/>
<line x1="969.75" y1="700" x2="969.75" stroke="white" stroke-opacity="0.1" stroke-width="0.5"/>
<line x1="979.75" y1="700" x2="979.75" stroke="white" stroke-opacity="0.1" stroke-width="0.5"/>
<line x1="989.75" y1="700" x2="989.75" stroke="white" stroke-opacity="0.1" stroke-width="0.5"/>
<line x1="999.75" y1="700" x2="999.75" stroke="white" stroke-opacity="0.3" stroke-width="0.5"/>
<line x1="1009.75" y1="700" x2="1009.75" stroke="white" stroke-opacity="0.1" stroke-width="0.5"/>
<line x1="1019.75" y1="700" x2="1019.75" stroke="white" stroke-opacity="0.1" stroke-width="0.5"/>
<line x1="1029.75" y1="700" x2="1029.75" stroke="white" stroke-opacity="0.1" stroke-width="0.5"/>
<line x1="1039.75" y1="700" x2="1039.75" stroke="white" stroke-opacity="0.1" stroke-width="0.5"/>
<line x1="1049.75" y1="700" x2="1049.75" stroke="white" stroke-opacity="0.1" stroke-width="0.5"/>
<line x1="1059.75" y1="700" x2="1059.75" stroke="white" stroke-opacity="0.1" stroke-width="0.5"/>
<line x1="1069.75" y1="700" x2="1069.75" stroke="white" stroke-opacity="0.1" stroke-width="0.5"/>
<line x1="1079.75" y1="700" x2="1079.75" stroke="white" stroke-opacity="0.1" stroke-width="0.5"/>
<line x1="1089.75" y1="700" x2="1089.75" stroke="white" stroke-opacity="0.1" stroke-width="0.5"/>
<line x1="1099.75" y1="700" x2="1099.75" stroke="white" stroke-opacity="0.3" stroke-width="0.5"/>
<line x1="1109.75" y1="700" x2="1109.75" stroke="white" stroke-opacity="0.1" stroke-width="0.5"/>
<line x1="1119.75" y1="700" x2="1119.75" stroke="white" stroke-opacity="0.1" stroke-width="0.5"/>
<line x1="1129.75" y1="700" x2="1129.75" stroke="white" stroke-opacity="0.1" stroke-width="0.5"/>
<line x1="1139.75" y1="700" x2="1139.75" stroke="white" stroke-opacity="0.1" stroke-width="0.5"/>
<line x1="1149.75" y1="700" x2="1149.75" stroke="white" stroke-opacity="0.1" stroke-width="0.5"/>
<line x1="1159.75" y1="700" x2="1159.75" stroke="white" stroke-opacity="0.1" stroke-width="0.5"/>
<line x1="1169.75" y1="700" x2="1169.75" stroke="white" stroke-opacity="0.1" stroke-width="0.5"/>
<line x1="1179.75" y1="700" x2="1179.75" stroke="white" stroke-opacity="0.1" stroke-width="0.5"/>
<line x1="1189.75" y1="700" x2="1189.75" stroke="white" stroke-opacity="0.1" stroke-width="0.5"/>
<line x1="1199.75" y1="700" x2="1199.75" stroke="white" stroke-opacity="0.3" stroke-width="0.5"/>
<line x1="1209.75" y1="700" x2="1209.75" stroke="white" stroke-opacity="0.1" stroke-width="0.5"/>
<line x1="1219.75" y1="700" x2="1219.75" stroke="white" stroke-opacity="0.1" stroke-width="0.5"/>
<line x1="1229.75" y1="700" x2="1229.75" stroke="white" stroke-opacity="0.1" stroke-width="0.5"/>
<line x1="1239.75" y1="700" x2="1239.75" stroke="white" stroke-opacity="0.1" stroke-width="0.5"/>
<line x1="1249.75" y1="700" x2="1249.75" stroke="white" stroke-opacity="0.1" stroke-width="0.5"/>
<line x1="1259.75" y1="700" x2="1259.75" stroke="white" stroke-opacity="0.1" stroke-width="0.5"/>
<line x1="1269.75" y1="700" x2="1269.75" stroke="white" stroke-opacity="0.1" stroke-width="0.5"/>
<line x1="1279.75" y1="700" x2="1279.75" stroke="white" stroke-opacity="0.1" stroke-width="0.5"/>
<line x1="1289.75" y1="700" x2="1289.75" stroke="white" stroke-opacity="0.1" stroke-width="0.5"/>
<line x1="1299.75" y1="700" x2="1299.75" stroke="white" stroke-opacity="0.1" stroke-width="0.5"/>
<line x1="-0.00170898" y1="69.75" x2="1310" y2="69.75" stroke="white" stroke-opacity="0.1" stroke-width="0.5"/>
<line x1="-0.00170898" y1="79.75" x2="1310" y2="79.75" stroke="white" stroke-opacity="0.1" stroke-width="0.5"/>
<line x1="-0.00170898" y1="89.75" x2="1310" y2="89.75" stroke="white" stroke-opacity="0.1" stroke-width="0.5"/>
<line x1="-0.00170898" y1="99.75" x2="1310" y2="99.75" stroke="white" stroke-opacity="0.3" stroke-width="0.5"/>
<line x1="-0.00170898" y1="109.75" x2="1310" y2="109.75" stroke="white" stroke-opacity="0.1" stroke-width="0.5"/>
<line x1="-0.00170898" y1="119.75" x2="1310" y2="119.75" stroke="white" stroke-opacity="0.1" stroke-width="0.5"/>
<line x1="-0.00170898" y1="129.75" x2="1310" y2="129.75" stroke="white" stroke-opacity="0.1" stroke-width="0.5"/>
<line x1="-0.00170898" y1="139.75" x2="1310" y2="139.75" stroke="white" stroke-opacity="0.1" stroke-width="0.5"/>
<line x1="-0.00170898" y1="149.75" x2="1310" y2="149.75" stroke="white" stroke-opacity="0.1" stroke-width="0.5"/>
<line x1="-0.00170898" y1="159.75" x2="1310" y2="159.75" stroke="white" stroke-opacity="0.1" stroke-width="0.5"/>
<line x1="-0.00170898" y1="169.75" x2="1310" y2="169.75" stroke="white" stroke-opacity="0.1" stroke-width="0.5"/>
<line x1="-0.00170898" y1="179.75" x2="1310" y2="179.75" stroke="white" stroke-opacity="0.1" stroke-width="0.5"/>
<line x1="-0.00170898" y1="189.75" x2="1310" y2="189.75" stroke="white" stroke-opacity="0.1" stroke-width="0.5"/>
<line x1="-0.00170898" y1="199.75" x2="1310" y2="199.75" stroke="white" stroke-opacity="0.3" stroke-width="0.5"/>
<line x1="-0.00170898" y1="209.75" x2="1310" y2="209.75" stroke="white" stroke-opacity="0.1" stroke-width="0.5"/>
<line x1="-0.00170898" y1="219.75" x2="1310" y2="219.75" stroke="white" stroke-opacity="0.1" stroke-width="0.5"/>
<line x1="-0.00170898" y1="229.75" x2="1310" y2="229.75" stroke="white" stroke-opacity="0.1" stroke-width="0.5"/>
<line x1="-0.00170898" y1="239.75" x2="1310" y2="239.75" stroke="white" stroke-opacity="0.1" stroke-width="0.5"/>
<line x1="-0.00170898" y1="249.75" x2="1310" y2="249.75" stroke="white" stroke-opacity="0.1" stroke-width="0.5"/>
<line x1="-0.00170898" y1="259.75" x2="1310" y2="259.75" stroke="white" stroke-opacity="0.1" stroke-width="0.5"/>
<line x1="-0.00170898" y1="269.75" x2="1310" y2="269.75" stroke="white" stroke-opacity="0.1" stroke-width="0.5"/>
<line x1="-0.00170898" y1="279.75" x2="1310" y2="279.75" stroke="white" stroke-opacity="0.1" stroke-width="0.5"/>
<line x1="-0.00170898" y1="289.75" x2="1310" y2="289.75" stroke="white" stroke-opacity="0.1" stroke-width="0.5"/>
<line x1="-0.00170898" y1="299.75" x2="1310" y2="299.75" stroke="white" stroke-opacity="0.3" stroke-width="0.5"/>
<line x1="-0.00170898" y1="309.75" x2="1310" y2="309.75" stroke="white" stroke-opacity="0.1" stroke-width="0.5"/>
<line x1="-0.00170898" y1="319.75" x2="1310" y2="319.75" stroke="white" stroke-opacity="0.1" stroke-width="0.5"/>
<line x1="-0.00170898" y1="329.75" x2="1310" y2="329.75" stroke="white" stroke-opacity="0.1" stroke-width="0.5"/>
<line x1="-0.00170898" y1="339.75" x2="1310" y2="339.75" stroke="white" stroke-opacity="0.1" stroke-width="0.5"/>
<line x1="-0.00170898" y1="349.75" x2="1310" y2="349.75" stroke="white" stroke-opacity="0.1" stroke-width="0.5"/>
<line x1="-0.00170898" y1="359.75" x2="1310" y2="359.75" stroke="white" stroke-opacity="0.1" stroke-width="0.5"/>
<line x1="-0.00170898" y1="369.75" x2="1310" y2="369.75" stroke="white" stroke-opacity="0.1" stroke-width="0.5"/>
<line x1="-0.00170898" y1="379.75" x2="1310" y2="379.75" stroke="white" stroke-opacity="0.1" stroke-width="0.5"/>
<line x1="-0.00170898" y1="389.75" x2="1310" y2="389.75" stroke="white" stroke-opacity="0.1" stroke-width="0.5"/>
<line x1="-0.00170898" y1="399.75" x2="1310" y2="399.75" stroke="white" stroke-opacity="0.3" stroke-width="0.5"/>
<line x1="-0.00170898" y1="409.75" x2="1310" y2="409.75" stroke="white" stroke-opacity="0.1" stroke-width="0.5"/>
<line x1="-0.00170898" y1="419.75" x2="1310" y2="419.75" stroke="white" stroke-opacity="0.1" stroke-width="0.5"/>
<line x1="-0.00170898" y1="429.75" x2="1310" y2="429.75" stroke="white" stroke-opacity="0.1" stroke-width="0.5"/>
<line x1="-0.00170898" y1="439.75" x2="1310" y2="439.75" stroke="white" stroke-opacity="0.1" stroke-width="0.5"/>
<line x1="-0.00170898" y1="449.75" x2="1310" y2="449.75" stroke="white" stroke-opacity="0.1" stroke-width="0.5"/>
<line x1="-0.00170898" y1="459.75" x2="1310" y2="459.75" stroke="white" stroke-opacity="0.1" stroke-width="0.5"/>
<line x1="-0.00170898" y1="469.75" x2="1310" y2="469.75" stroke="white" stroke-opacity="0.1" stroke-width="0.5"/>
<line x1="-0.00170898" y1="479.75" x2="1310" y2="479.75" stroke="white" stroke-opacity="0.1" stroke-width="0.5"/>
<line x1="-0.00170898" y1="489.75" x2="1310" y2="489.75" stroke="white" stroke-opacity="0.1" stroke-width="0.5"/>
<line x1="-0.00170898" y1="499.75" x2="1310" y2="499.75" stroke="white" stroke-opacity="0.3" stroke-width="0.5"/>
<line x1="-0.00170898" y1="509.75" x2="1310" y2="509.75" stroke="white" stroke-opacity="0.1" stroke-width="0.5"/>
<line x1="-0.00170898" y1="519.75" x2="1310" y2="519.75" stroke="white" stroke-opacity="0.1" stroke-width="0.5"/>
<line x1="-0.00170898" y1="529.75" x2="1310" y2="529.75" stroke="white" stroke-opacity="0.1" stroke-width="0.5"/>
<line x1="-0.00170898" y1="539.75" x2="1310" y2="539.75" stroke="white" stroke-opacity="0.1" stroke-width="0.5"/>
<line x1="-0.00170898" y1="549.75" x2="1310" y2="549.75" stroke="white" stroke-opacity="0.1" stroke-width="0.5"/>
<line x1="-0.00170898" y1="559.75" x2="1310" y2="559.75" stroke="white" stroke-opacity="0.1" stroke-width="0.5"/>
<line x1="-0.00170898" y1="569.75" x2="1310" y2="569.75" stroke="white" stroke-opacity="0.1" stroke-width="0.5"/>
<line x1="-0.00170898" y1="579.75" x2="1310" y2="579.75" stroke="white" stroke-opacity="0.1" stroke-width="0.5"/>
<line x1="-0.00170898" y1="589.75" x2="1310" y2="589.75" stroke="white" stroke-opacity="0.1" stroke-width="0.5"/>
<line x1="-0.00170898" y1="599.75" x2="1310" y2="599.75" stroke="white" stroke-opacity="0.3" stroke-width="0.5"/>
<line x1="-0.00170898" y1="609.75" x2="1310" y2="609.75" stroke="white" stroke-opacity="0.1" stroke-width="0.5"/>
<line x1="-0.00170898" y1="619.75" x2="1310" y2="619.75" stroke="white" stroke-opacity="0.1" stroke-width="0.5"/>
<line x1="-0.00170898" y1="629.75" x2="1310" y2="629.75" stroke="white" stroke-opacity="0.1" stroke-width="0.5"/>
<line x1="-0.00170898" y1="639.75" x2="1310" y2="639.75" stroke="white" stroke-opacity="0.1" stroke-width="0.5"/>
<line x1="-0.00170898" y1="649.75" x2="1310" y2="649.75" stroke="white" stroke-opacity="0.1" stroke-width="0.5"/>
<line x1="-0.00170898" y1="659.75" x2="1310" y2="659.75" stroke="white" stroke-opacity="0.1" stroke-width="0.5"/>
<line x1="-0.00170898" y1="669.75" x2="1310" y2="669.75" stroke="white" stroke-opacity="0.1" stroke-width="0.5"/>
<line x1="-0.00170898" y1="679.75" x2="1310" y2="679.75" stroke="white" stroke-opacity="0.1" stroke-width="0.5"/>
<line x1="-0.00170898" y1="689.75" x2="1310" y2="689.75" stroke="white" stroke-opacity="0.1" stroke-width="0.5"/>
<line x1="4.005e-05" y1="59.75" x2="1310" y2="59.75" stroke="white" stroke-opacity="0.1" stroke-width="0.5"/>
<line x1="4.005e-05" y1="49.75" x2="1310" y2="49.75" stroke="white" stroke-opacity="0.1" stroke-width="0.5"/>
<line x1="4.005e-05" y1="39.75" x2="1310" y2="39.75" stroke="white" stroke-opacity="0.1" stroke-width="0.5"/>
<line x1="4.005e-05" y1="29.75" x2="1310" y2="29.75" stroke="white" stroke-opacity="0.1" stroke-width="0.5"/>
<line x1="4.005e-05" y1="19.75" x2="1310" y2="19.75" stroke="white" stroke-opacity="0.1" stroke-width="0.5"/>
<line x1="4.005e-05" y1="9.75" x2="1310" y2="9.75" stroke="white" stroke-opacity="0.1" stroke-width="0.5"/>
<rect width="1310" height="700" fill="url(#paint1_radial_16_419)" fill-opacity="0.5"/>
<path d="M573.386 397.16C563.666 397.16 554.606 395.6 546.206 392.48C537.926 389.24 530.726 384.68 524.606 378.8C518.486 372.92 513.686 366.02 510.206 358.1C506.846 350.18 505.166 341.48 505.166 332C505.166 322.52 506.846 313.82 510.206 305.9C513.686 297.98 518.486 291.08 524.606 285.2C530.846 279.32 538.106 274.82 546.386 271.7C554.666 268.46 563.726 266.84 573.566 266.84C584.486 266.84 594.326 268.76 603.086 272.6C611.966 276.32 619.406 281.84 625.406 289.16L606.686 306.44C602.366 301.52 597.566 297.86 592.286 295.46C587.006 292.94 581.246 291.68 575.006 291.68C569.126 291.68 563.726 292.64 558.806 294.56C553.886 296.48 549.626 299.24 546.026 302.84C542.426 306.44 539.606 310.7 537.566 315.62C535.646 320.54 534.686 326 534.686 332C534.686 338 535.646 343.46 537.566 348.38C539.606 353.3 542.426 357.56 546.026 361.16C549.626 364.76 553.886 367.52 558.806 369.44C563.726 371.36 569.126 372.32 575.006 372.32C581.246 372.32 587.006 371.12 592.286 368.72C597.566 366.2 602.366 362.42 606.686 357.38L625.406 374.66C619.406 381.98 611.966 387.56 603.086 391.4C594.326 395.24 584.426 397.16 573.386 397.16ZM645.098 395V269H674.258V371.24H737.438V395H645.098ZM753.731 395V269H782.891V395H753.731Z" fill="url(#paint2_linear_16_419)"/>
<rect x="520" y="426" width="263" height="4" fill="url(#paint3_linear_16_419)"/>
<defs>
<linearGradient id="paint0_linear_16_419" x1="655" y1="0" x2="655" y2="700" gradientUnits="userSpaceOnUse">
<stop stop-color="#090A16"/>
<stop offset="1" stop-color="#030306"/>
</linearGradient>
<radialGradient id="paint1_radial_16_419" cx="0" cy="0" r="1" gradientUnits="userSpaceOnUse" gradientTransform="translate(655 350) rotate(90) scale(350 655)">
<stop stop-color="#090A16"/>
<stop offset="1" stop-color="#030306"/>
</radialGradient>
<linearGradient id="paint2_linear_16_419" x1="298" y1="221" x2="997.64" y2="441.144" gradientUnits="userSpaceOnUse">
<stop stop-color="white"/>
<stop offset="1" stop-color="#D4D4D4"/>
</linearGradient>
<linearGradient id="paint3_linear_16_419" x1="520" y1="428" x2="783" y2="428" gradientUnits="userSpaceOnUse">
<stop stop-color="#5170FF"/>
<stop offset="1" stop-color="#FF66C4"/>
</linearGradient>
</defs>
</svg>
