<svg width="1310" height="700" viewBox="0 0 1310 700" fill="none" xmlns="http://www.w3.org/2000/svg">
<rect width="1310" height="700" fill="url(#paint0_linear_1_212)"/>
<line x1="9.75" y1="700" x2="9.75" stroke="white" stroke-opacity="0.1" stroke-width="0.5"/>
<line x1="19.75" y1="700" x2="19.75" stroke="white" stroke-opacity="0.1" stroke-width="0.5"/>
<line x1="29.75" y1="700" x2="29.75" stroke="white" stroke-opacity="0.1" stroke-width="0.5"/>
<line x1="39.75" y1="700" x2="39.75" stroke="white" stroke-opacity="0.1" stroke-width="0.5"/>
<line x1="49.75" y1="700" x2="49.75" stroke="white" stroke-opacity="0.1" stroke-width="0.5"/>
<line x1="59.75" y1="700" x2="59.75" stroke="white" stroke-opacity="0.1" stroke-width="0.5"/>
<line x1="69.75" y1="700" x2="69.75" stroke="white" stroke-opacity="0.1" stroke-width="0.5"/>
<line x1="79.75" y1="700" x2="79.75" stroke="white" stroke-opacity="0.1" stroke-width="0.5"/>
<line x1="89.75" y1="700" x2="89.75" stroke="white" stroke-opacity="0.1" stroke-width="0.5"/>
<line x1="99.75" y1="700" x2="99.75" stroke="white" stroke-opacity="0.3" stroke-width="0.5"/>
<line x1="109.75" y1="700" x2="109.75" stroke="white" stroke-opacity="0.1" stroke-width="0.5"/>
<line x1="119.75" y1="700" x2="119.75" stroke="white" stroke-opacity="0.1" stroke-width="0.5"/>
<line x1="129.75" y1="700" x2="129.75" stroke="white" stroke-opacity="0.1" stroke-width="0.5"/>
<line x1="139.75" y1="700" x2="139.75" stroke="white" stroke-opacity="0.1" stroke-width="0.5"/>
<line x1="149.75" y1="700" x2="149.75" stroke="white" stroke-opacity="0.1" stroke-width="0.5"/>
<line x1="159.75" y1="700" x2="159.75" stroke="white" stroke-opacity="0.1" stroke-width="0.5"/>
<line x1="169.75" y1="700" x2="169.75" stroke="white" stroke-opacity="0.1" stroke-width="0.5"/>
<line x1="179.75" y1="700" x2="179.75" stroke="white" stroke-opacity="0.1" stroke-width="0.5"/>
<line x1="189.75" y1="700" x2="189.75" stroke="white" stroke-opacity="0.1" stroke-width="0.5"/>
<line x1="199.75" y1="700" x2="199.75" stroke="white" stroke-opacity="0.3" stroke-width="0.5"/>
<line x1="209.75" y1="700" x2="209.75" stroke="white" stroke-opacity="0.1" stroke-width="0.5"/>
<line x1="219.75" y1="700" x2="219.75" stroke="white" stroke-opacity="0.1" stroke-width="0.5"/>
<line x1="229.75" y1="700" x2="229.75" stroke="white" stroke-opacity="0.1" stroke-width="0.5"/>
<line x1="239.75" y1="700" x2="239.75" stroke="white" stroke-opacity="0.1" stroke-width="0.5"/>
<line x1="249.75" y1="700" x2="249.75" stroke="white" stroke-opacity="0.1" stroke-width="0.5"/>
<line x1="259.75" y1="700" x2="259.75" stroke="white" stroke-opacity="0.1" stroke-width="0.5"/>
<line x1="269.75" y1="700" x2="269.75" stroke="white" stroke-opacity="0.1" stroke-width="0.5"/>
<line x1="279.75" y1="700" x2="279.75" stroke="white" stroke-opacity="0.1" stroke-width="0.5"/>
<line x1="289.75" y1="700" x2="289.75" stroke="white" stroke-opacity="0.1" stroke-width="0.5"/>
<line x1="299.75" y1="700" x2="299.75" stroke="white" stroke-opacity="0.3" stroke-width="0.5"/>
<line x1="309.75" y1="700" x2="309.75" stroke="white" stroke-opacity="0.1" stroke-width="0.5"/>
<line x1="319.75" y1="700" x2="319.75" stroke="white" stroke-opacity="0.1" stroke-width="0.5"/>
<line x1="329.75" y1="700" x2="329.75" stroke="white" stroke-opacity="0.1" stroke-width="0.5"/>
<line x1="339.75" y1="700" x2="339.75" stroke="white" stroke-opacity="0.1" stroke-width="0.5"/>
<line x1="349.75" y1="700" x2="349.75" stroke="white" stroke-opacity="0.1" stroke-width="0.5"/>
<line x1="359.75" y1="700" x2="359.75" stroke="white" stroke-opacity="0.1" stroke-width="0.5"/>
<line x1="369.75" y1="700" x2="369.75" stroke="white" stroke-opacity="0.1" stroke-width="0.5"/>
<line x1="379.75" y1="700" x2="379.75" stroke="white" stroke-opacity="0.1" stroke-width="0.5"/>
<line x1="389.75" y1="700" x2="389.75" stroke="white" stroke-opacity="0.1" stroke-width="0.5"/>
<line x1="399.75" y1="700" x2="399.75" stroke="white" stroke-opacity="0.3" stroke-width="0.5"/>
<line x1="409.75" y1="700" x2="409.75" stroke="white" stroke-opacity="0.1" stroke-width="0.5"/>
<line x1="419.75" y1="700" x2="419.75" stroke="white" stroke-opacity="0.1" stroke-width="0.5"/>
<line x1="429.75" y1="700" x2="429.75" stroke="white" stroke-opacity="0.1" stroke-width="0.5"/>
<line x1="439.75" y1="700" x2="439.75" stroke="white" stroke-opacity="0.1" stroke-width="0.5"/>
<line x1="449.75" y1="700" x2="449.75" stroke="white" stroke-opacity="0.1" stroke-width="0.5"/>
<line x1="459.75" y1="700" x2="459.75" stroke="white" stroke-opacity="0.1" stroke-width="0.5"/>
<line x1="469.75" y1="700" x2="469.75" stroke="white" stroke-opacity="0.1" stroke-width="0.5"/>
<line x1="479.75" y1="700" x2="479.75" stroke="white" stroke-opacity="0.1" stroke-width="0.5"/>
<line x1="489.75" y1="700" x2="489.75" stroke="white" stroke-opacity="0.1" stroke-width="0.5"/>
<line x1="499.75" y1="700" x2="499.75" stroke="white" stroke-opacity="0.3" stroke-width="0.5"/>
<line x1="509.75" y1="700" x2="509.75" stroke="white" stroke-opacity="0.1" stroke-width="0.5"/>
<line x1="519.75" y1="700" x2="519.75" stroke="white" stroke-opacity="0.1" stroke-width="0.5"/>
<line x1="529.75" y1="700" x2="529.75" stroke="white" stroke-opacity="0.1" stroke-width="0.5"/>
<line x1="539.75" y1="700" x2="539.75" stroke="white" stroke-opacity="0.1" stroke-width="0.5"/>
<line x1="549.75" y1="700" x2="549.75" stroke="white" stroke-opacity="0.1" stroke-width="0.5"/>
<line x1="559.75" y1="700" x2="559.75" stroke="white" stroke-opacity="0.1" stroke-width="0.5"/>
<line x1="569.75" y1="700" x2="569.75" stroke="white" stroke-opacity="0.1" stroke-width="0.5"/>
<line x1="579.75" y1="700" x2="579.75" stroke="white" stroke-opacity="0.1" stroke-width="0.5"/>
<line x1="589.75" y1="700" x2="589.75" stroke="white" stroke-opacity="0.1" stroke-width="0.5"/>
<line x1="599.75" y1="700" x2="599.75" stroke="white" stroke-opacity="0.3" stroke-width="0.5"/>
<line x1="609.75" y1="700" x2="609.75" stroke="white" stroke-opacity="0.1" stroke-width="0.5"/>
<line x1="619.75" y1="700" x2="619.75" stroke="white" stroke-opacity="0.1" stroke-width="0.5"/>
<line x1="629.75" y1="700" x2="629.75" stroke="white" stroke-opacity="0.1" stroke-width="0.5"/>
<line x1="639.75" y1="700" x2="639.75" stroke="white" stroke-opacity="0.1" stroke-width="0.5"/>
<line x1="649.75" y1="700" x2="649.75" stroke="white" stroke-opacity="0.1" stroke-width="0.5"/>
<line x1="659.75" y1="700" x2="659.75" stroke="white" stroke-opacity="0.1" stroke-width="0.5"/>
<line x1="669.75" y1="700" x2="669.75" stroke="white" stroke-opacity="0.1" stroke-width="0.5"/>
<line x1="679.75" y1="700" x2="679.75" stroke="white" stroke-opacity="0.1" stroke-width="0.5"/>
<line x1="689.75" y1="700" x2="689.75" stroke="white" stroke-opacity="0.1" stroke-width="0.5"/>
<line x1="699.75" y1="700" x2="699.75" stroke="white" stroke-opacity="0.3" stroke-width="0.5"/>
<line x1="709.75" y1="700" x2="709.75" stroke="white" stroke-opacity="0.1" stroke-width="0.5"/>
<line x1="719.75" y1="700" x2="719.75" stroke="white" stroke-opacity="0.1" stroke-width="0.5"/>
<line x1="729.75" y1="700" x2="729.75" stroke="white" stroke-opacity="0.1" stroke-width="0.5"/>
<line x1="739.75" y1="700" x2="739.75" stroke="white" stroke-opacity="0.1" stroke-width="0.5"/>
<line x1="749.75" y1="700" x2="749.75" stroke="white" stroke-opacity="0.1" stroke-width="0.5"/>
<line x1="759.75" y1="700" x2="759.75" stroke="white" stroke-opacity="0.1" stroke-width="0.5"/>
<line x1="769.75" y1="700" x2="769.75" stroke="white" stroke-opacity="0.1" stroke-width="0.5"/>
<line x1="779.75" y1="700" x2="779.75" stroke="white" stroke-opacity="0.1" stroke-width="0.5"/>
<line x1="789.75" y1="700" x2="789.75" stroke="white" stroke-opacity="0.1" stroke-width="0.5"/>
<line x1="799.75" y1="700" x2="799.75" stroke="white" stroke-opacity="0.3" stroke-width="0.5"/>
<line x1="809.75" y1="700" x2="809.75" stroke="white" stroke-opacity="0.1" stroke-width="0.5"/>
<line x1="819.75" y1="700" x2="819.75" stroke="white" stroke-opacity="0.1" stroke-width="0.5"/>
<line x1="829.75" y1="700" x2="829.75" stroke="white" stroke-opacity="0.1" stroke-width="0.5"/>
<line x1="839.75" y1="700" x2="839.75" stroke="white" stroke-opacity="0.1" stroke-width="0.5"/>
<line x1="849.75" y1="700" x2="849.75" stroke="white" stroke-opacity="0.1" stroke-width="0.5"/>
<line x1="859.75" y1="700" x2="859.75" stroke="white" stroke-opacity="0.1" stroke-width="0.5"/>
<line x1="869.75" y1="700" x2="869.75" stroke="white" stroke-opacity="0.1" stroke-width="0.5"/>
<line x1="879.75" y1="700" x2="879.75" stroke="white" stroke-opacity="0.1" stroke-width="0.5"/>
<line x1="889.75" y1="700" x2="889.75" stroke="white" stroke-opacity="0.1" stroke-width="0.5"/>
<line x1="899.75" y1="700" x2="899.75" stroke="white" stroke-opacity="0.3" stroke-width="0.5"/>
<line x1="909.75" y1="700" x2="909.75" stroke="white" stroke-opacity="0.1" stroke-width="0.5"/>
<line x1="919.75" y1="700" x2="919.75" stroke="white" stroke-opacity="0.1" stroke-width="0.5"/>
<line x1="929.75" y1="700" x2="929.75" stroke="white" stroke-opacity="0.1" stroke-width="0.5"/>
<line x1="939.75" y1="700" x2="939.75" stroke="white" stroke-opacity="0.1" stroke-width="0.5"/>
<line x1="949.75" y1="700" x2="949.75" stroke="white" stroke-opacity="0.1" stroke-width="0.5"/>
<line x1="959.75" y1="700" x2="959.75" stroke="white" stroke-opacity="0.1" stroke-width="0.5"/>
<line x1="969.75" y1="700" x2="969.75" stroke="white" stroke-opacity="0.1" stroke-width="0.5"/>
<line x1="979.75" y1="700" x2="979.75" stroke="white" stroke-opacity="0.1" stroke-width="0.5"/>
<line x1="989.75" y1="700" x2="989.75" stroke="white" stroke-opacity="0.1" stroke-width="0.5"/>
<line x1="999.75" y1="700" x2="999.75" stroke="white" stroke-opacity="0.3" stroke-width="0.5"/>
<line x1="1009.75" y1="700" x2="1009.75" stroke="white" stroke-opacity="0.1" stroke-width="0.5"/>
<line x1="1019.75" y1="700" x2="1019.75" stroke="white" stroke-opacity="0.1" stroke-width="0.5"/>
<line x1="1029.75" y1="700" x2="1029.75" stroke="white" stroke-opacity="0.1" stroke-width="0.5"/>
<line x1="1039.75" y1="700" x2="1039.75" stroke="white" stroke-opacity="0.1" stroke-width="0.5"/>
<line x1="1049.75" y1="700" x2="1049.75" stroke="white" stroke-opacity="0.1" stroke-width="0.5"/>
<line x1="1059.75" y1="700" x2="1059.75" stroke="white" stroke-opacity="0.1" stroke-width="0.5"/>
<line x1="1069.75" y1="700" x2="1069.75" stroke="white" stroke-opacity="0.1" stroke-width="0.5"/>
<line x1="1079.75" y1="700" x2="1079.75" stroke="white" stroke-opacity="0.1" stroke-width="0.5"/>
<line x1="1089.75" y1="700" x2="1089.75" stroke="white" stroke-opacity="0.1" stroke-width="0.5"/>
<line x1="1099.75" y1="700" x2="1099.75" stroke="white" stroke-opacity="0.3" stroke-width="0.5"/>
<line x1="1109.75" y1="700" x2="1109.75" stroke="white" stroke-opacity="0.1" stroke-width="0.5"/>
<line x1="1119.75" y1="700" x2="1119.75" stroke="white" stroke-opacity="0.1" stroke-width="0.5"/>
<line x1="1129.75" y1="700" x2="1129.75" stroke="white" stroke-opacity="0.1" stroke-width="0.5"/>
<line x1="1139.75" y1="700" x2="1139.75" stroke="white" stroke-opacity="0.1" stroke-width="0.5"/>
<line x1="1149.75" y1="700" x2="1149.75" stroke="white" stroke-opacity="0.1" stroke-width="0.5"/>
<line x1="1159.75" y1="700" x2="1159.75" stroke="white" stroke-opacity="0.1" stroke-width="0.5"/>
<line x1="1169.75" y1="700" x2="1169.75" stroke="white" stroke-opacity="0.1" stroke-width="0.5"/>
<line x1="1179.75" y1="700" x2="1179.75" stroke="white" stroke-opacity="0.1" stroke-width="0.5"/>
<line x1="1189.75" y1="700" x2="1189.75" stroke="white" stroke-opacity="0.1" stroke-width="0.5"/>
<line x1="1199.75" y1="700" x2="1199.75" stroke="white" stroke-opacity="0.3" stroke-width="0.5"/>
<line x1="1209.75" y1="700" x2="1209.75" stroke="white" stroke-opacity="0.1" stroke-width="0.5"/>
<line x1="1219.75" y1="700" x2="1219.75" stroke="white" stroke-opacity="0.1" stroke-width="0.5"/>
<line x1="1229.75" y1="700" x2="1229.75" stroke="white" stroke-opacity="0.1" stroke-width="0.5"/>
<line x1="1239.75" y1="700" x2="1239.75" stroke="white" stroke-opacity="0.1" stroke-width="0.5"/>
<line x1="1249.75" y1="700" x2="1249.75" stroke="white" stroke-opacity="0.1" stroke-width="0.5"/>
<line x1="1259.75" y1="700" x2="1259.75" stroke="white" stroke-opacity="0.1" stroke-width="0.5"/>
<line x1="1269.75" y1="700" x2="1269.75" stroke="white" stroke-opacity="0.1" stroke-width="0.5"/>
<line x1="1279.75" y1="700" x2="1279.75" stroke="white" stroke-opacity="0.1" stroke-width="0.5"/>
<line x1="1289.75" y1="700" x2="1289.75" stroke="white" stroke-opacity="0.1" stroke-width="0.5"/>
<line x1="1299.75" y1="700" x2="1299.75" stroke="white" stroke-opacity="0.1" stroke-width="0.5"/>
<line x1="-0.00170898" y1="69.75" x2="1310" y2="69.75" stroke="white" stroke-opacity="0.1" stroke-width="0.5"/>
<line x1="-0.00170898" y1="79.75" x2="1310" y2="79.75" stroke="white" stroke-opacity="0.1" stroke-width="0.5"/>
<line x1="-0.00170898" y1="89.75" x2="1310" y2="89.75" stroke="white" stroke-opacity="0.1" stroke-width="0.5"/>
<line x1="-0.00170898" y1="99.75" x2="1310" y2="99.75" stroke="white" stroke-opacity="0.3" stroke-width="0.5"/>
<line x1="-0.00170898" y1="109.75" x2="1310" y2="109.75" stroke="white" stroke-opacity="0.1" stroke-width="0.5"/>
<line x1="-0.00170898" y1="119.75" x2="1310" y2="119.75" stroke="white" stroke-opacity="0.1" stroke-width="0.5"/>
<line x1="-0.00170898" y1="129.75" x2="1310" y2="129.75" stroke="white" stroke-opacity="0.1" stroke-width="0.5"/>
<line x1="-0.00170898" y1="139.75" x2="1310" y2="139.75" stroke="white" stroke-opacity="0.1" stroke-width="0.5"/>
<line x1="-0.00170898" y1="149.75" x2="1310" y2="149.75" stroke="white" stroke-opacity="0.1" stroke-width="0.5"/>
<line x1="-0.00170898" y1="159.75" x2="1310" y2="159.75" stroke="white" stroke-opacity="0.1" stroke-width="0.5"/>
<line x1="-0.00170898" y1="169.75" x2="1310" y2="169.75" stroke="white" stroke-opacity="0.1" stroke-width="0.5"/>
<line x1="-0.00170898" y1="179.75" x2="1310" y2="179.75" stroke="white" stroke-opacity="0.1" stroke-width="0.5"/>
<line x1="-0.00170898" y1="189.75" x2="1310" y2="189.75" stroke="white" stroke-opacity="0.1" stroke-width="0.5"/>
<line x1="-0.00170898" y1="199.75" x2="1310" y2="199.75" stroke="white" stroke-opacity="0.3" stroke-width="0.5"/>
<line x1="-0.00170898" y1="209.75" x2="1310" y2="209.75" stroke="white" stroke-opacity="0.1" stroke-width="0.5"/>
<line x1="-0.00170898" y1="219.75" x2="1310" y2="219.75" stroke="white" stroke-opacity="0.1" stroke-width="0.5"/>
<line x1="-0.00170898" y1="229.75" x2="1310" y2="229.75" stroke="white" stroke-opacity="0.1" stroke-width="0.5"/>
<line x1="-0.00170898" y1="239.75" x2="1310" y2="239.75" stroke="white" stroke-opacity="0.1" stroke-width="0.5"/>
<line x1="-0.00170898" y1="249.75" x2="1310" y2="249.75" stroke="white" stroke-opacity="0.1" stroke-width="0.5"/>
<line x1="-0.00170898" y1="259.75" x2="1310" y2="259.75" stroke="white" stroke-opacity="0.1" stroke-width="0.5"/>
<line x1="-0.00170898" y1="269.75" x2="1310" y2="269.75" stroke="white" stroke-opacity="0.1" stroke-width="0.5"/>
<line x1="-0.00170898" y1="279.75" x2="1310" y2="279.75" stroke="white" stroke-opacity="0.1" stroke-width="0.5"/>
<line x1="-0.00170898" y1="289.75" x2="1310" y2="289.75" stroke="white" stroke-opacity="0.1" stroke-width="0.5"/>
<line x1="-0.00170898" y1="299.75" x2="1310" y2="299.75" stroke="white" stroke-opacity="0.3" stroke-width="0.5"/>
<line x1="-0.00170898" y1="309.75" x2="1310" y2="309.75" stroke="white" stroke-opacity="0.1" stroke-width="0.5"/>
<line x1="-0.00170898" y1="319.75" x2="1310" y2="319.75" stroke="white" stroke-opacity="0.1" stroke-width="0.5"/>
<line x1="-0.00170898" y1="329.75" x2="1310" y2="329.75" stroke="white" stroke-opacity="0.1" stroke-width="0.5"/>
<line x1="-0.00170898" y1="339.75" x2="1310" y2="339.75" stroke="white" stroke-opacity="0.1" stroke-width="0.5"/>
<line x1="-0.00170898" y1="349.75" x2="1310" y2="349.75" stroke="white" stroke-opacity="0.1" stroke-width="0.5"/>
<line x1="-0.00170898" y1="359.75" x2="1310" y2="359.75" stroke="white" stroke-opacity="0.1" stroke-width="0.5"/>
<line x1="-0.00170898" y1="369.75" x2="1310" y2="369.75" stroke="white" stroke-opacity="0.1" stroke-width="0.5"/>
<line x1="-0.00170898" y1="379.75" x2="1310" y2="379.75" stroke="white" stroke-opacity="0.1" stroke-width="0.5"/>
<line x1="-0.00170898" y1="389.75" x2="1310" y2="389.75" stroke="white" stroke-opacity="0.1" stroke-width="0.5"/>
<line x1="-0.00170898" y1="399.75" x2="1310" y2="399.75" stroke="white" stroke-opacity="0.3" stroke-width="0.5"/>
<line x1="-0.00170898" y1="409.75" x2="1310" y2="409.75" stroke="white" stroke-opacity="0.1" stroke-width="0.5"/>
<line x1="-0.00170898" y1="419.75" x2="1310" y2="419.75" stroke="white" stroke-opacity="0.1" stroke-width="0.5"/>
<line x1="-0.00170898" y1="429.75" x2="1310" y2="429.75" stroke="white" stroke-opacity="0.1" stroke-width="0.5"/>
<line x1="-0.00170898" y1="439.75" x2="1310" y2="439.75" stroke="white" stroke-opacity="0.1" stroke-width="0.5"/>
<line x1="-0.00170898" y1="449.75" x2="1310" y2="449.75" stroke="white" stroke-opacity="0.1" stroke-width="0.5"/>
<line x1="-0.00170898" y1="459.75" x2="1310" y2="459.75" stroke="white" stroke-opacity="0.1" stroke-width="0.5"/>
<line x1="-0.00170898" y1="469.75" x2="1310" y2="469.75" stroke="white" stroke-opacity="0.1" stroke-width="0.5"/>
<line x1="-0.00170898" y1="479.75" x2="1310" y2="479.75" stroke="white" stroke-opacity="0.1" stroke-width="0.5"/>
<line x1="-0.00170898" y1="489.75" x2="1310" y2="489.75" stroke="white" stroke-opacity="0.1" stroke-width="0.5"/>
<line x1="-0.00170898" y1="499.75" x2="1310" y2="499.75" stroke="white" stroke-opacity="0.3" stroke-width="0.5"/>
<line x1="-0.00170898" y1="509.75" x2="1310" y2="509.75" stroke="white" stroke-opacity="0.1" stroke-width="0.5"/>
<line x1="-0.00170898" y1="519.75" x2="1310" y2="519.75" stroke="white" stroke-opacity="0.1" stroke-width="0.5"/>
<line x1="-0.00170898" y1="529.75" x2="1310" y2="529.75" stroke="white" stroke-opacity="0.1" stroke-width="0.5"/>
<line x1="-0.00170898" y1="539.75" x2="1310" y2="539.75" stroke="white" stroke-opacity="0.1" stroke-width="0.5"/>
<line x1="-0.00170898" y1="549.75" x2="1310" y2="549.75" stroke="white" stroke-opacity="0.1" stroke-width="0.5"/>
<line x1="-0.00170898" y1="559.75" x2="1310" y2="559.75" stroke="white" stroke-opacity="0.1" stroke-width="0.5"/>
<line x1="-0.00170898" y1="569.75" x2="1310" y2="569.75" stroke="white" stroke-opacity="0.1" stroke-width="0.5"/>
<line x1="-0.00170898" y1="579.75" x2="1310" y2="579.75" stroke="white" stroke-opacity="0.1" stroke-width="0.5"/>
<line x1="-0.00170898" y1="589.75" x2="1310" y2="589.75" stroke="white" stroke-opacity="0.1" stroke-width="0.5"/>
<line x1="-0.00170898" y1="599.75" x2="1310" y2="599.75" stroke="white" stroke-opacity="0.3" stroke-width="0.5"/>
<line x1="-0.00170898" y1="609.75" x2="1310" y2="609.75" stroke="white" stroke-opacity="0.1" stroke-width="0.5"/>
<line x1="-0.00170898" y1="619.75" x2="1310" y2="619.75" stroke="white" stroke-opacity="0.1" stroke-width="0.5"/>
<line x1="-0.00170898" y1="629.75" x2="1310" y2="629.75" stroke="white" stroke-opacity="0.1" stroke-width="0.5"/>
<line x1="-0.00170898" y1="639.75" x2="1310" y2="639.75" stroke="white" stroke-opacity="0.1" stroke-width="0.5"/>
<line x1="-0.00170898" y1="649.75" x2="1310" y2="649.75" stroke="white" stroke-opacity="0.1" stroke-width="0.5"/>
<line x1="-0.00170898" y1="659.75" x2="1310" y2="659.75" stroke="white" stroke-opacity="0.1" stroke-width="0.5"/>
<line x1="-0.00170898" y1="669.75" x2="1310" y2="669.75" stroke="white" stroke-opacity="0.1" stroke-width="0.5"/>
<line x1="-0.00170898" y1="679.75" x2="1310" y2="679.75" stroke="white" stroke-opacity="0.1" stroke-width="0.5"/>
<line x1="-0.00170898" y1="689.75" x2="1310" y2="689.75" stroke="white" stroke-opacity="0.1" stroke-width="0.5"/>
<line x1="4.005e-05" y1="59.75" x2="1310" y2="59.75" stroke="white" stroke-opacity="0.1" stroke-width="0.5"/>
<line x1="4.005e-05" y1="49.75" x2="1310" y2="49.75" stroke="white" stroke-opacity="0.1" stroke-width="0.5"/>
<line x1="4.005e-05" y1="39.75" x2="1310" y2="39.75" stroke="white" stroke-opacity="0.1" stroke-width="0.5"/>
<line x1="4.005e-05" y1="29.75" x2="1310" y2="29.75" stroke="white" stroke-opacity="0.1" stroke-width="0.5"/>
<line x1="4.005e-05" y1="19.75" x2="1310" y2="19.75" stroke="white" stroke-opacity="0.1" stroke-width="0.5"/>
<line x1="4.005e-05" y1="9.75" x2="1310" y2="9.75" stroke="white" stroke-opacity="0.1" stroke-width="0.5"/>
<rect width="1310" height="700" fill="url(#paint1_radial_1_212)" fill-opacity="0.5"/>
<path d="M387.315 395V269H411.435L485.775 359.72H474.075V269H502.875V395H478.935L404.415 304.28H416.115V395H387.315ZM576.786 396.44C566.466 396.44 557.286 394.28 549.246 389.96C541.326 385.64 535.026 379.76 530.346 372.32C525.786 364.76 523.506 356.18 523.506 346.58C523.506 336.86 525.786 328.28 530.346 320.84C535.026 313.28 541.326 307.4 549.246 303.2C557.286 298.88 566.466 296.72 576.786 296.72C586.986 296.72 596.106 298.88 604.146 303.2C612.186 307.4 618.486 313.22 623.046 320.66C627.606 328.1 629.886 336.74 629.886 346.58C629.886 356.18 627.606 364.76 623.046 372.32C618.486 379.76 612.186 385.64 604.146 389.96C596.106 394.28 586.986 396.44 576.786 396.44ZM576.786 373.4C581.466 373.4 585.666 372.32 589.386 370.16C593.106 368 596.046 364.94 598.206 360.98C600.366 356.9 601.446 352.1 601.446 346.58C601.446 340.94 600.366 336.14 598.206 332.18C596.046 328.22 593.106 325.16 589.386 323C585.666 320.84 581.466 319.76 576.786 319.76C572.106 319.76 567.906 320.84 564.186 323C560.466 325.16 557.466 328.22 555.186 332.18C553.026 336.14 551.946 340.94 551.946 346.58C551.946 352.1 553.026 356.9 555.186 360.98C557.466 364.94 560.466 368 564.186 370.16C567.906 372.32 572.106 373.4 576.786 373.4ZM695.455 396.44C685.015 396.44 675.715 394.34 667.555 390.14C659.395 385.82 652.975 379.88 648.295 372.32C643.735 364.76 641.455 356.18 641.455 346.58C641.455 336.86 643.735 328.28 648.295 320.84C652.975 313.28 659.395 307.4 667.555 303.2C675.715 298.88 685.015 296.72 695.455 296.72C705.655 296.72 714.535 298.88 722.095 303.2C729.655 307.4 735.235 313.46 738.835 321.38L717.055 333.08C714.535 328.52 711.355 325.16 707.515 323C703.795 320.84 699.715 319.76 695.275 319.76C690.475 319.76 686.155 320.84 682.315 323C678.475 325.16 675.415 328.22 673.135 332.18C670.975 336.14 669.895 340.94 669.895 346.58C669.895 352.22 670.975 357.02 673.135 360.98C675.415 364.94 678.475 368 682.315 370.16C686.155 372.32 690.475 373.4 695.275 373.4C699.715 373.4 703.795 372.38 707.515 370.34C711.355 368.18 714.535 364.76 717.055 360.08L738.835 371.96C735.235 379.76 729.655 385.82 722.095 390.14C714.535 394.34 705.655 396.44 695.455 396.44ZM755.003 395V298.16H781.823V325.52L778.043 317.6C780.923 310.76 785.543 305.6 791.903 302.12C798.263 298.52 806.003 296.72 815.123 296.72V322.64C813.923 322.52 812.843 322.46 811.883 322.46C810.923 322.34 809.903 322.28 808.823 322.28C801.143 322.28 794.903 324.5 790.103 328.94C785.423 333.26 783.083 340.04 783.083 349.28V395H755.003ZM884.891 395V376.1L883.091 371.96V338.12C883.091 332.12 881.231 327.44 877.511 324.08C873.911 320.72 868.331 319.04 860.771 319.04C855.611 319.04 850.511 319.88 845.471 321.56C840.551 323.12 836.351 325.28 832.871 328.04L822.791 308.42C828.071 304.7 834.431 301.82 841.871 299.78C849.311 297.74 856.871 296.72 864.551 296.72C879.311 296.72 890.771 300.2 898.931 307.16C907.091 314.12 911.171 324.98 911.171 339.74V395H884.891ZM855.371 396.44C847.811 396.44 841.331 395.18 835.931 392.66C830.531 390.02 826.391 386.48 823.511 382.04C820.631 377.6 819.191 372.62 819.191 367.1C819.191 361.34 820.571 356.3 823.331 351.98C826.211 347.66 830.711 344.3 836.831 341.9C842.951 339.38 850.931 338.12 860.771 338.12H886.511V354.5H863.831C857.231 354.5 852.671 355.58 850.151 357.74C847.751 359.9 846.551 362.6 846.551 365.84C846.551 369.44 847.931 372.32 850.691 374.48C853.571 376.52 857.471 377.54 862.391 377.54C867.071 377.54 871.271 376.46 874.991 374.3C878.711 372.02 881.411 368.72 883.091 364.4L887.411 377.36C885.371 383.6 881.651 388.34 876.251 391.58C870.851 394.82 863.891 396.44 855.371 396.44Z" fill="url(#paint2_linear_1_212)"/>
<rect x="387.3" y="426" width="523.9" height="4" fill="url(#paint3_linear_1_212)"/>
<defs>
<linearGradient id="paint0_linear_1_212" x1="655" y1="0" x2="655" y2="700" gradientUnits="userSpaceOnUse">
<stop stop-color="#090A16"/>
<stop offset="1" stop-color="#030306"/>
</linearGradient>
<radialGradient id="paint1_radial_1_212" cx="0" cy="0" r="1" gradientUnits="userSpaceOnUse" gradientTransform="translate(655 350) rotate(90) scale(350 655)">
<stop stop-color="#090A16"/>
<stop offset="1" stop-color="#030306"/>
</radialGradient>
<linearGradient id="paint2_linear_1_212" x1="298" y1="221" x2="997.64" y2="441.144" gradientUnits="userSpaceOnUse">
<stop stop-color="white"/>
<stop offset="1" stop-color="#D4D4D4"/>
</linearGradient>
<linearGradient id="paint3_linear_1_212" x1="387.3" y1="428" x2="911.2" y2="428" gradientUnits="userSpaceOnUse">
<stop stop-color="#5170FF"/>
<stop offset="1" stop-color="#FF66C4"/>
</linearGradient>
</defs>
</svg>
