<svg width="1310" height="700" viewBox="0 0 1310 700" fill="none" xmlns="http://www.w3.org/2000/svg">
<rect width="1310" height="700" fill="url(#paint0_linear_16_2)"/>
<line x1="9.75" y1="700" x2="9.75" stroke="white" stroke-opacity="0.1" stroke-width="0.5"/>
<line x1="19.75" y1="700" x2="19.75" stroke="white" stroke-opacity="0.1" stroke-width="0.5"/>
<line x1="29.75" y1="700" x2="29.75" stroke="white" stroke-opacity="0.1" stroke-width="0.5"/>
<line x1="39.75" y1="700" x2="39.75" stroke="white" stroke-opacity="0.1" stroke-width="0.5"/>
<line x1="49.75" y1="700" x2="49.75" stroke="white" stroke-opacity="0.1" stroke-width="0.5"/>
<line x1="59.75" y1="700" x2="59.75" stroke="white" stroke-opacity="0.1" stroke-width="0.5"/>
<line x1="69.75" y1="700" x2="69.75" stroke="white" stroke-opacity="0.1" stroke-width="0.5"/>
<line x1="79.75" y1="700" x2="79.75" stroke="white" stroke-opacity="0.1" stroke-width="0.5"/>
<line x1="89.75" y1="700" x2="89.75" stroke="white" stroke-opacity="0.1" stroke-width="0.5"/>
<line x1="99.75" y1="700" x2="99.75" stroke="white" stroke-opacity="0.3" stroke-width="0.5"/>
<line x1="109.75" y1="700" x2="109.75" stroke="white" stroke-opacity="0.1" stroke-width="0.5"/>
<line x1="119.75" y1="700" x2="119.75" stroke="white" stroke-opacity="0.1" stroke-width="0.5"/>
<line x1="129.75" y1="700" x2="129.75" stroke="white" stroke-opacity="0.1" stroke-width="0.5"/>
<line x1="139.75" y1="700" x2="139.75" stroke="white" stroke-opacity="0.1" stroke-width="0.5"/>
<line x1="149.75" y1="700" x2="149.75" stroke="white" stroke-opacity="0.1" stroke-width="0.5"/>
<line x1="159.75" y1="700" x2="159.75" stroke="white" stroke-opacity="0.1" stroke-width="0.5"/>
<line x1="169.75" y1="700" x2="169.75" stroke="white" stroke-opacity="0.1" stroke-width="0.5"/>
<line x1="179.75" y1="700" x2="179.75" stroke="white" stroke-opacity="0.1" stroke-width="0.5"/>
<line x1="189.75" y1="700" x2="189.75" stroke="white" stroke-opacity="0.1" stroke-width="0.5"/>
<line x1="199.75" y1="700" x2="199.75" stroke="white" stroke-opacity="0.3" stroke-width="0.5"/>
<line x1="209.75" y1="700" x2="209.75" stroke="white" stroke-opacity="0.1" stroke-width="0.5"/>
<line x1="219.75" y1="700" x2="219.75" stroke="white" stroke-opacity="0.1" stroke-width="0.5"/>
<line x1="229.75" y1="700" x2="229.75" stroke="white" stroke-opacity="0.1" stroke-width="0.5"/>
<line x1="239.75" y1="700" x2="239.75" stroke="white" stroke-opacity="0.1" stroke-width="0.5"/>
<line x1="249.75" y1="700" x2="249.75" stroke="white" stroke-opacity="0.1" stroke-width="0.5"/>
<line x1="259.75" y1="700" x2="259.75" stroke="white" stroke-opacity="0.1" stroke-width="0.5"/>
<line x1="269.75" y1="700" x2="269.75" stroke="white" stroke-opacity="0.1" stroke-width="0.5"/>
<line x1="279.75" y1="700" x2="279.75" stroke="white" stroke-opacity="0.1" stroke-width="0.5"/>
<line x1="289.75" y1="700" x2="289.75" stroke="white" stroke-opacity="0.1" stroke-width="0.5"/>
<line x1="299.75" y1="700" x2="299.75" stroke="white" stroke-opacity="0.3" stroke-width="0.5"/>
<line x1="309.75" y1="700" x2="309.75" stroke="white" stroke-opacity="0.1" stroke-width="0.5"/>
<line x1="319.75" y1="700" x2="319.75" stroke="white" stroke-opacity="0.1" stroke-width="0.5"/>
<line x1="329.75" y1="700" x2="329.75" stroke="white" stroke-opacity="0.1" stroke-width="0.5"/>
<line x1="339.75" y1="700" x2="339.75" stroke="white" stroke-opacity="0.1" stroke-width="0.5"/>
<line x1="349.75" y1="700" x2="349.75" stroke="white" stroke-opacity="0.1" stroke-width="0.5"/>
<line x1="359.75" y1="700" x2="359.75" stroke="white" stroke-opacity="0.1" stroke-width="0.5"/>
<line x1="369.75" y1="700" x2="369.75" stroke="white" stroke-opacity="0.1" stroke-width="0.5"/>
<line x1="379.75" y1="700" x2="379.75" stroke="white" stroke-opacity="0.1" stroke-width="0.5"/>
<line x1="389.75" y1="700" x2="389.75" stroke="white" stroke-opacity="0.1" stroke-width="0.5"/>
<line x1="399.75" y1="700" x2="399.75" stroke="white" stroke-opacity="0.3" stroke-width="0.5"/>
<line x1="409.75" y1="700" x2="409.75" stroke="white" stroke-opacity="0.1" stroke-width="0.5"/>
<line x1="419.75" y1="700" x2="419.75" stroke="white" stroke-opacity="0.1" stroke-width="0.5"/>
<line x1="429.75" y1="700" x2="429.75" stroke="white" stroke-opacity="0.1" stroke-width="0.5"/>
<line x1="439.75" y1="700" x2="439.75" stroke="white" stroke-opacity="0.1" stroke-width="0.5"/>
<line x1="449.75" y1="700" x2="449.75" stroke="white" stroke-opacity="0.1" stroke-width="0.5"/>
<line x1="459.75" y1="700" x2="459.75" stroke="white" stroke-opacity="0.1" stroke-width="0.5"/>
<line x1="469.75" y1="700" x2="469.75" stroke="white" stroke-opacity="0.1" stroke-width="0.5"/>
<line x1="479.75" y1="700" x2="479.75" stroke="white" stroke-opacity="0.1" stroke-width="0.5"/>
<line x1="489.75" y1="700" x2="489.75" stroke="white" stroke-opacity="0.1" stroke-width="0.5"/>
<line x1="499.75" y1="700" x2="499.75" stroke="white" stroke-opacity="0.3" stroke-width="0.5"/>
<line x1="509.75" y1="700" x2="509.75" stroke="white" stroke-opacity="0.1" stroke-width="0.5"/>
<line x1="519.75" y1="700" x2="519.75" stroke="white" stroke-opacity="0.1" stroke-width="0.5"/>
<line x1="529.75" y1="700" x2="529.75" stroke="white" stroke-opacity="0.1" stroke-width="0.5"/>
<line x1="539.75" y1="700" x2="539.75" stroke="white" stroke-opacity="0.1" stroke-width="0.5"/>
<line x1="549.75" y1="700" x2="549.75" stroke="white" stroke-opacity="0.1" stroke-width="0.5"/>
<line x1="559.75" y1="700" x2="559.75" stroke="white" stroke-opacity="0.1" stroke-width="0.5"/>
<line x1="569.75" y1="700" x2="569.75" stroke="white" stroke-opacity="0.1" stroke-width="0.5"/>
<line x1="579.75" y1="700" x2="579.75" stroke="white" stroke-opacity="0.1" stroke-width="0.5"/>
<line x1="589.75" y1="700" x2="589.75" stroke="white" stroke-opacity="0.1" stroke-width="0.5"/>
<line x1="599.75" y1="700" x2="599.75" stroke="white" stroke-opacity="0.3" stroke-width="0.5"/>
<line x1="609.75" y1="700" x2="609.75" stroke="white" stroke-opacity="0.1" stroke-width="0.5"/>
<line x1="619.75" y1="700" x2="619.75" stroke="white" stroke-opacity="0.1" stroke-width="0.5"/>
<line x1="629.75" y1="700" x2="629.75" stroke="white" stroke-opacity="0.1" stroke-width="0.5"/>
<line x1="639.75" y1="700" x2="639.75" stroke="white" stroke-opacity="0.1" stroke-width="0.5"/>
<line x1="649.75" y1="700" x2="649.75" stroke="white" stroke-opacity="0.1" stroke-width="0.5"/>
<line x1="659.75" y1="700" x2="659.75" stroke="white" stroke-opacity="0.1" stroke-width="0.5"/>
<line x1="669.75" y1="700" x2="669.75" stroke="white" stroke-opacity="0.1" stroke-width="0.5"/>
<line x1="679.75" y1="700" x2="679.75" stroke="white" stroke-opacity="0.1" stroke-width="0.5"/>
<line x1="689.75" y1="700" x2="689.75" stroke="white" stroke-opacity="0.1" stroke-width="0.5"/>
<line x1="699.75" y1="700" x2="699.75" stroke="white" stroke-opacity="0.3" stroke-width="0.5"/>
<line x1="709.75" y1="700" x2="709.75" stroke="white" stroke-opacity="0.1" stroke-width="0.5"/>
<line x1="719.75" y1="700" x2="719.75" stroke="white" stroke-opacity="0.1" stroke-width="0.5"/>
<line x1="729.75" y1="700" x2="729.75" stroke="white" stroke-opacity="0.1" stroke-width="0.5"/>
<line x1="739.75" y1="700" x2="739.75" stroke="white" stroke-opacity="0.1" stroke-width="0.5"/>
<line x1="749.75" y1="700" x2="749.75" stroke="white" stroke-opacity="0.1" stroke-width="0.5"/>
<line x1="759.75" y1="700" x2="759.75" stroke="white" stroke-opacity="0.1" stroke-width="0.5"/>
<line x1="769.75" y1="700" x2="769.75" stroke="white" stroke-opacity="0.1" stroke-width="0.5"/>
<line x1="779.75" y1="700" x2="779.75" stroke="white" stroke-opacity="0.1" stroke-width="0.5"/>
<line x1="789.75" y1="700" x2="789.75" stroke="white" stroke-opacity="0.1" stroke-width="0.5"/>
<line x1="799.75" y1="700" x2="799.75" stroke="white" stroke-opacity="0.3" stroke-width="0.5"/>
<line x1="809.75" y1="700" x2="809.75" stroke="white" stroke-opacity="0.1" stroke-width="0.5"/>
<line x1="819.75" y1="700" x2="819.75" stroke="white" stroke-opacity="0.1" stroke-width="0.5"/>
<line x1="829.75" y1="700" x2="829.75" stroke="white" stroke-opacity="0.1" stroke-width="0.5"/>
<line x1="839.75" y1="700" x2="839.75" stroke="white" stroke-opacity="0.1" stroke-width="0.5"/>
<line x1="849.75" y1="700" x2="849.75" stroke="white" stroke-opacity="0.1" stroke-width="0.5"/>
<line x1="859.75" y1="700" x2="859.75" stroke="white" stroke-opacity="0.1" stroke-width="0.5"/>
<line x1="869.75" y1="700" x2="869.75" stroke="white" stroke-opacity="0.1" stroke-width="0.5"/>
<line x1="879.75" y1="700" x2="879.75" stroke="white" stroke-opacity="0.1" stroke-width="0.5"/>
<line x1="889.75" y1="700" x2="889.75" stroke="white" stroke-opacity="0.1" stroke-width="0.5"/>
<line x1="899.75" y1="700" x2="899.75" stroke="white" stroke-opacity="0.3" stroke-width="0.5"/>
<line x1="909.75" y1="700" x2="909.75" stroke="white" stroke-opacity="0.1" stroke-width="0.5"/>
<line x1="919.75" y1="700" x2="919.75" stroke="white" stroke-opacity="0.1" stroke-width="0.5"/>
<line x1="929.75" y1="700" x2="929.75" stroke="white" stroke-opacity="0.1" stroke-width="0.5"/>
<line x1="939.75" y1="700" x2="939.75" stroke="white" stroke-opacity="0.1" stroke-width="0.5"/>
<line x1="949.75" y1="700" x2="949.75" stroke="white" stroke-opacity="0.1" stroke-width="0.5"/>
<line x1="959.75" y1="700" x2="959.75" stroke="white" stroke-opacity="0.1" stroke-width="0.5"/>
<line x1="969.75" y1="700" x2="969.75" stroke="white" stroke-opacity="0.1" stroke-width="0.5"/>
<line x1="979.75" y1="700" x2="979.75" stroke="white" stroke-opacity="0.1" stroke-width="0.5"/>
<line x1="989.75" y1="700" x2="989.75" stroke="white" stroke-opacity="0.1" stroke-width="0.5"/>
<line x1="999.75" y1="700" x2="999.75" stroke="white" stroke-opacity="0.3" stroke-width="0.5"/>
<line x1="1009.75" y1="700" x2="1009.75" stroke="white" stroke-opacity="0.1" stroke-width="0.5"/>
<line x1="1019.75" y1="700" x2="1019.75" stroke="white" stroke-opacity="0.1" stroke-width="0.5"/>
<line x1="1029.75" y1="700" x2="1029.75" stroke="white" stroke-opacity="0.1" stroke-width="0.5"/>
<line x1="1039.75" y1="700" x2="1039.75" stroke="white" stroke-opacity="0.1" stroke-width="0.5"/>
<line x1="1049.75" y1="700" x2="1049.75" stroke="white" stroke-opacity="0.1" stroke-width="0.5"/>
<line x1="1059.75" y1="700" x2="1059.75" stroke="white" stroke-opacity="0.1" stroke-width="0.5"/>
<line x1="1069.75" y1="700" x2="1069.75" stroke="white" stroke-opacity="0.1" stroke-width="0.5"/>
<line x1="1079.75" y1="700" x2="1079.75" stroke="white" stroke-opacity="0.1" stroke-width="0.5"/>
<line x1="1089.75" y1="700" x2="1089.75" stroke="white" stroke-opacity="0.1" stroke-width="0.5"/>
<line x1="1099.75" y1="700" x2="1099.75" stroke="white" stroke-opacity="0.3" stroke-width="0.5"/>
<line x1="1109.75" y1="700" x2="1109.75" stroke="white" stroke-opacity="0.1" stroke-width="0.5"/>
<line x1="1119.75" y1="700" x2="1119.75" stroke="white" stroke-opacity="0.1" stroke-width="0.5"/>
<line x1="1129.75" y1="700" x2="1129.75" stroke="white" stroke-opacity="0.1" stroke-width="0.5"/>
<line x1="1139.75" y1="700" x2="1139.75" stroke="white" stroke-opacity="0.1" stroke-width="0.5"/>
<line x1="1149.75" y1="700" x2="1149.75" stroke="white" stroke-opacity="0.1" stroke-width="0.5"/>
<line x1="1159.75" y1="700" x2="1159.75" stroke="white" stroke-opacity="0.1" stroke-width="0.5"/>
<line x1="1169.75" y1="700" x2="1169.75" stroke="white" stroke-opacity="0.1" stroke-width="0.5"/>
<line x1="1179.75" y1="700" x2="1179.75" stroke="white" stroke-opacity="0.1" stroke-width="0.5"/>
<line x1="1189.75" y1="700" x2="1189.75" stroke="white" stroke-opacity="0.1" stroke-width="0.5"/>
<line x1="1199.75" y1="700" x2="1199.75" stroke="white" stroke-opacity="0.3" stroke-width="0.5"/>
<line x1="1209.75" y1="700" x2="1209.75" stroke="white" stroke-opacity="0.1" stroke-width="0.5"/>
<line x1="1219.75" y1="700" x2="1219.75" stroke="white" stroke-opacity="0.1" stroke-width="0.5"/>
<line x1="1229.75" y1="700" x2="1229.75" stroke="white" stroke-opacity="0.1" stroke-width="0.5"/>
<line x1="1239.75" y1="700" x2="1239.75" stroke="white" stroke-opacity="0.1" stroke-width="0.5"/>
<line x1="1249.75" y1="700" x2="1249.75" stroke="white" stroke-opacity="0.1" stroke-width="0.5"/>
<line x1="1259.75" y1="700" x2="1259.75" stroke="white" stroke-opacity="0.1" stroke-width="0.5"/>
<line x1="1269.75" y1="700" x2="1269.75" stroke="white" stroke-opacity="0.1" stroke-width="0.5"/>
<line x1="1279.75" y1="700" x2="1279.75" stroke="white" stroke-opacity="0.1" stroke-width="0.5"/>
<line x1="1289.75" y1="700" x2="1289.75" stroke="white" stroke-opacity="0.1" stroke-width="0.5"/>
<line x1="1299.75" y1="700" x2="1299.75" stroke="white" stroke-opacity="0.1" stroke-width="0.5"/>
<line x1="-0.00170898" y1="69.75" x2="1310" y2="69.75" stroke="white" stroke-opacity="0.1" stroke-width="0.5"/>
<line x1="-0.00170898" y1="79.75" x2="1310" y2="79.75" stroke="white" stroke-opacity="0.1" stroke-width="0.5"/>
<line x1="-0.00170898" y1="89.75" x2="1310" y2="89.75" stroke="white" stroke-opacity="0.1" stroke-width="0.5"/>
<line x1="-0.00170898" y1="99.75" x2="1310" y2="99.75" stroke="white" stroke-opacity="0.3" stroke-width="0.5"/>
<line x1="-0.00170898" y1="109.75" x2="1310" y2="109.75" stroke="white" stroke-opacity="0.1" stroke-width="0.5"/>
<line x1="-0.00170898" y1="119.75" x2="1310" y2="119.75" stroke="white" stroke-opacity="0.1" stroke-width="0.5"/>
<line x1="-0.00170898" y1="129.75" x2="1310" y2="129.75" stroke="white" stroke-opacity="0.1" stroke-width="0.5"/>
<line x1="-0.00170898" y1="139.75" x2="1310" y2="139.75" stroke="white" stroke-opacity="0.1" stroke-width="0.5"/>
<line x1="-0.00170898" y1="149.75" x2="1310" y2="149.75" stroke="white" stroke-opacity="0.1" stroke-width="0.5"/>
<line x1="-0.00170898" y1="159.75" x2="1310" y2="159.75" stroke="white" stroke-opacity="0.1" stroke-width="0.5"/>
<line x1="-0.00170898" y1="169.75" x2="1310" y2="169.75" stroke="white" stroke-opacity="0.1" stroke-width="0.5"/>
<line x1="-0.00170898" y1="179.75" x2="1310" y2="179.75" stroke="white" stroke-opacity="0.1" stroke-width="0.5"/>
<line x1="-0.00170898" y1="189.75" x2="1310" y2="189.75" stroke="white" stroke-opacity="0.1" stroke-width="0.5"/>
<line x1="-0.00170898" y1="199.75" x2="1310" y2="199.75" stroke="white" stroke-opacity="0.3" stroke-width="0.5"/>
<line x1="-0.00170898" y1="209.75" x2="1310" y2="209.75" stroke="white" stroke-opacity="0.1" stroke-width="0.5"/>
<line x1="-0.00170898" y1="219.75" x2="1310" y2="219.75" stroke="white" stroke-opacity="0.1" stroke-width="0.5"/>
<line x1="-0.00170898" y1="229.75" x2="1310" y2="229.75" stroke="white" stroke-opacity="0.1" stroke-width="0.5"/>
<line x1="-0.00170898" y1="239.75" x2="1310" y2="239.75" stroke="white" stroke-opacity="0.1" stroke-width="0.5"/>
<line x1="-0.00170898" y1="249.75" x2="1310" y2="249.75" stroke="white" stroke-opacity="0.1" stroke-width="0.5"/>
<line x1="-0.00170898" y1="259.75" x2="1310" y2="259.75" stroke="white" stroke-opacity="0.1" stroke-width="0.5"/>
<line x1="-0.00170898" y1="269.75" x2="1310" y2="269.75" stroke="white" stroke-opacity="0.1" stroke-width="0.5"/>
<line x1="-0.00170898" y1="279.75" x2="1310" y2="279.75" stroke="white" stroke-opacity="0.1" stroke-width="0.5"/>
<line x1="-0.00170898" y1="289.75" x2="1310" y2="289.75" stroke="white" stroke-opacity="0.1" stroke-width="0.5"/>
<line x1="-0.00170898" y1="299.75" x2="1310" y2="299.75" stroke="white" stroke-opacity="0.3" stroke-width="0.5"/>
<line x1="-0.00170898" y1="309.75" x2="1310" y2="309.75" stroke="white" stroke-opacity="0.1" stroke-width="0.5"/>
<line x1="-0.00170898" y1="319.75" x2="1310" y2="319.75" stroke="white" stroke-opacity="0.1" stroke-width="0.5"/>
<line x1="-0.00170898" y1="329.75" x2="1310" y2="329.75" stroke="white" stroke-opacity="0.1" stroke-width="0.5"/>
<line x1="-0.00170898" y1="339.75" x2="1310" y2="339.75" stroke="white" stroke-opacity="0.1" stroke-width="0.5"/>
<line x1="-0.00170898" y1="349.75" x2="1310" y2="349.75" stroke="white" stroke-opacity="0.1" stroke-width="0.5"/>
<line x1="-0.00170898" y1="359.75" x2="1310" y2="359.75" stroke="white" stroke-opacity="0.1" stroke-width="0.5"/>
<line x1="-0.00170898" y1="369.75" x2="1310" y2="369.75" stroke="white" stroke-opacity="0.1" stroke-width="0.5"/>
<line x1="-0.00170898" y1="379.75" x2="1310" y2="379.75" stroke="white" stroke-opacity="0.1" stroke-width="0.5"/>
<line x1="-0.00170898" y1="389.75" x2="1310" y2="389.75" stroke="white" stroke-opacity="0.1" stroke-width="0.5"/>
<line x1="-0.00170898" y1="399.75" x2="1310" y2="399.75" stroke="white" stroke-opacity="0.3" stroke-width="0.5"/>
<line x1="-0.00170898" y1="409.75" x2="1310" y2="409.75" stroke="white" stroke-opacity="0.1" stroke-width="0.5"/>
<line x1="-0.00170898" y1="419.75" x2="1310" y2="419.75" stroke="white" stroke-opacity="0.1" stroke-width="0.5"/>
<line x1="-0.00170898" y1="429.75" x2="1310" y2="429.75" stroke="white" stroke-opacity="0.1" stroke-width="0.5"/>
<line x1="-0.00170898" y1="439.75" x2="1310" y2="439.75" stroke="white" stroke-opacity="0.1" stroke-width="0.5"/>
<line x1="-0.00170898" y1="449.75" x2="1310" y2="449.75" stroke="white" stroke-opacity="0.1" stroke-width="0.5"/>
<line x1="-0.00170898" y1="459.75" x2="1310" y2="459.75" stroke="white" stroke-opacity="0.1" stroke-width="0.5"/>
<line x1="-0.00170898" y1="469.75" x2="1310" y2="469.75" stroke="white" stroke-opacity="0.1" stroke-width="0.5"/>
<line x1="-0.00170898" y1="479.75" x2="1310" y2="479.75" stroke="white" stroke-opacity="0.1" stroke-width="0.5"/>
<line x1="-0.00170898" y1="489.75" x2="1310" y2="489.75" stroke="white" stroke-opacity="0.1" stroke-width="0.5"/>
<line x1="-0.00170898" y1="499.75" x2="1310" y2="499.75" stroke="white" stroke-opacity="0.3" stroke-width="0.5"/>
<line x1="-0.00170898" y1="509.75" x2="1310" y2="509.75" stroke="white" stroke-opacity="0.1" stroke-width="0.5"/>
<line x1="-0.00170898" y1="519.75" x2="1310" y2="519.75" stroke="white" stroke-opacity="0.1" stroke-width="0.5"/>
<line x1="-0.00170898" y1="529.75" x2="1310" y2="529.75" stroke="white" stroke-opacity="0.1" stroke-width="0.5"/>
<line x1="-0.00170898" y1="539.75" x2="1310" y2="539.75" stroke="white" stroke-opacity="0.1" stroke-width="0.5"/>
<line x1="-0.00170898" y1="549.75" x2="1310" y2="549.75" stroke="white" stroke-opacity="0.1" stroke-width="0.5"/>
<line x1="-0.00170898" y1="559.75" x2="1310" y2="559.75" stroke="white" stroke-opacity="0.1" stroke-width="0.5"/>
<line x1="-0.00170898" y1="569.75" x2="1310" y2="569.75" stroke="white" stroke-opacity="0.1" stroke-width="0.5"/>
<line x1="-0.00170898" y1="579.75" x2="1310" y2="579.75" stroke="white" stroke-opacity="0.1" stroke-width="0.5"/>
<line x1="-0.00170898" y1="589.75" x2="1310" y2="589.75" stroke="white" stroke-opacity="0.1" stroke-width="0.5"/>
<line x1="-0.00170898" y1="599.75" x2="1310" y2="599.75" stroke="white" stroke-opacity="0.3" stroke-width="0.5"/>
<line x1="-0.00170898" y1="609.75" x2="1310" y2="609.75" stroke="white" stroke-opacity="0.1" stroke-width="0.5"/>
<line x1="-0.00170898" y1="619.75" x2="1310" y2="619.75" stroke="white" stroke-opacity="0.1" stroke-width="0.5"/>
<line x1="-0.00170898" y1="629.75" x2="1310" y2="629.75" stroke="white" stroke-opacity="0.1" stroke-width="0.5"/>
<line x1="-0.00170898" y1="639.75" x2="1310" y2="639.75" stroke="white" stroke-opacity="0.1" stroke-width="0.5"/>
<line x1="-0.00170898" y1="649.75" x2="1310" y2="649.75" stroke="white" stroke-opacity="0.1" stroke-width="0.5"/>
<line x1="-0.00170898" y1="659.75" x2="1310" y2="659.75" stroke="white" stroke-opacity="0.1" stroke-width="0.5"/>
<line x1="-0.00170898" y1="669.75" x2="1310" y2="669.75" stroke="white" stroke-opacity="0.1" stroke-width="0.5"/>
<line x1="-0.00170898" y1="679.75" x2="1310" y2="679.75" stroke="white" stroke-opacity="0.1" stroke-width="0.5"/>
<line x1="-0.00170898" y1="689.75" x2="1310" y2="689.75" stroke="white" stroke-opacity="0.1" stroke-width="0.5"/>
<line x1="4.005e-05" y1="59.75" x2="1310" y2="59.75" stroke="white" stroke-opacity="0.1" stroke-width="0.5"/>
<line x1="4.005e-05" y1="49.75" x2="1310" y2="49.75" stroke="white" stroke-opacity="0.1" stroke-width="0.5"/>
<line x1="4.005e-05" y1="39.75" x2="1310" y2="39.75" stroke="white" stroke-opacity="0.1" stroke-width="0.5"/>
<line x1="4.005e-05" y1="29.75" x2="1310" y2="29.75" stroke="white" stroke-opacity="0.1" stroke-width="0.5"/>
<line x1="4.005e-05" y1="19.75" x2="1310" y2="19.75" stroke="white" stroke-opacity="0.1" stroke-width="0.5"/>
<line x1="4.005e-05" y1="9.75" x2="1310" y2="9.75" stroke="white" stroke-opacity="0.1" stroke-width="0.5"/>
<rect width="1310" height="700" fill="url(#paint1_radial_16_2)" fill-opacity="0.5"/>
<path d="M256.949 396V305.12H221.109V284H318.709V305.12H282.869V396H256.949ZM364.865 397.28C355.052 397.28 346.412 395.36 338.945 391.52C331.585 387.68 325.878 382.453 321.825 375.84C317.772 369.12 315.745 361.493 315.745 352.96C315.745 344.32 317.718 336.693 321.665 330.08C325.718 323.36 331.212 318.133 338.145 314.4C345.078 310.56 352.918 308.64 361.665 308.64C370.092 308.64 377.665 310.453 384.385 314.08C391.212 317.6 396.598 322.72 400.545 329.44C404.492 336.053 406.465 344 406.465 353.28C406.465 354.24 406.412 355.36 406.305 356.64C406.198 357.813 406.092 358.933 405.985 360H336.065V345.44H392.865L383.265 349.76C383.265 345.28 382.358 341.387 380.545 338.08C378.732 334.773 376.225 332.213 373.025 330.4C369.825 328.48 366.092 327.52 361.825 327.52C357.558 327.52 353.772 328.48 350.465 330.4C347.265 332.213 344.758 334.827 342.945 338.24C341.132 341.547 340.225 345.493 340.225 350.08V353.92C340.225 358.613 341.238 362.773 343.265 366.4C345.398 369.92 348.332 372.64 352.065 374.56C355.905 376.373 360.385 377.28 365.505 377.28C370.092 377.28 374.092 376.587 377.505 375.2C381.025 373.813 384.225 371.733 387.105 368.96L400.385 383.36C396.438 387.84 391.478 391.307 385.505 393.76C379.532 396.107 372.652 397.28 364.865 397.28ZM533.323 308.64C540.149 308.64 546.176 310.027 551.403 312.8C556.736 315.467 560.896 319.627 563.883 325.28C566.976 330.827 568.523 337.973 568.523 346.72V396H543.563V350.56C543.563 343.627 542.123 338.507 539.243 335.2C536.363 331.893 532.309 330.24 527.083 330.24C523.456 330.24 520.203 331.093 517.323 332.8C514.443 334.4 512.203 336.853 510.603 340.16C509.003 343.467 508.203 347.68 508.203 352.8V396H483.243V350.56C483.243 343.627 481.803 338.507 478.923 335.2C476.149 331.893 472.149 330.24 466.923 330.24C463.296 330.24 460.043 331.093 457.163 332.8C454.283 334.4 452.043 336.853 450.443 340.16C448.843 343.467 448.043 347.68 448.043 352.8V396H423.083V309.92H446.923V333.44L442.443 326.56C445.429 320.693 449.643 316.267 455.083 313.28C460.629 310.187 466.923 308.64 473.963 308.64C481.856 308.64 488.736 310.667 494.603 314.72C500.576 318.667 504.523 324.747 506.443 332.96L497.643 330.56C500.523 323.84 505.109 318.507 511.403 314.56C517.803 310.613 525.109 308.64 533.323 308.64ZM641.775 397.28C634.522 397.28 628.175 395.68 622.735 392.48C617.295 389.28 613.028 384.427 609.935 377.92C606.948 371.307 605.455 362.987 605.455 352.96C605.455 342.827 606.895 334.507 609.775 328C612.655 321.493 616.815 316.64 622.255 313.44C627.695 310.24 634.202 308.64 641.775 308.64C649.882 308.64 657.135 310.507 663.535 314.24C670.042 317.867 675.162 322.987 678.895 329.6C682.735 336.213 684.655 344 684.655 352.96C684.655 362.027 682.735 369.867 678.895 376.48C675.162 383.093 670.042 388.213 663.535 391.84C657.135 395.467 649.882 397.28 641.775 397.28ZM590.895 427.04V309.92H614.735V327.52L614.255 353.12L615.855 378.56V427.04H590.895ZM637.455 376.8C641.615 376.8 645.295 375.84 648.495 373.92C651.802 372 654.415 369.28 656.335 365.76C658.362 362.133 659.375 357.867 659.375 352.96C659.375 347.947 658.362 343.68 656.335 340.16C654.415 336.64 651.802 333.92 648.495 332C645.295 330.08 641.615 329.12 637.455 329.12C633.295 329.12 629.562 330.08 626.255 332C622.948 333.92 620.335 336.64 618.415 340.16C616.495 343.68 615.535 347.947 615.535 352.96C615.535 357.867 616.495 362.133 618.415 365.76C620.335 369.28 622.948 372 626.255 373.92C629.562 375.84 633.295 376.8 637.455 376.8ZM701.364 396V277.28H726.324V396H701.364ZM802.289 396V379.2L800.689 375.52V345.44C800.689 340.107 799.035 335.947 795.729 332.96C792.529 329.973 787.569 328.48 780.849 328.48C776.262 328.48 771.729 329.227 767.249 330.72C762.875 332.107 759.142 334.027 756.049 336.48L747.089 319.04C751.782 315.733 757.435 313.173 764.049 311.36C770.662 309.547 777.382 308.64 784.209 308.64C797.329 308.64 807.515 311.733 814.769 317.92C822.022 324.107 825.649 333.76 825.649 346.88V396H802.289ZM776.049 397.28C769.329 397.28 763.569 396.16 758.769 393.92C753.969 391.573 750.289 388.427 747.729 384.48C745.169 380.533 743.889 376.107 743.889 371.2C743.889 366.08 745.115 361.6 747.569 357.76C750.129 353.92 754.129 350.933 759.569 348.8C765.009 346.56 772.102 345.44 780.849 345.44H803.729V360H783.569C777.702 360 773.649 360.96 771.409 362.88C769.275 364.8 768.209 367.2 768.209 370.08C768.209 373.28 769.435 375.84 771.889 377.76C774.449 379.573 777.915 380.48 782.289 380.48C786.449 380.48 790.182 379.52 793.489 377.6C796.795 375.573 799.195 372.64 800.689 368.8L804.529 380.32C802.715 385.867 799.409 390.08 794.609 392.96C789.809 395.84 783.622 397.28 776.049 397.28ZM883.439 397.28C873.305 397.28 865.412 394.72 859.759 389.6C854.105 384.373 851.279 376.64 851.279 366.4V290.88H876.239V366.08C876.239 369.707 877.199 372.533 879.119 374.56C881.039 376.48 883.652 377.44 886.959 377.44C890.905 377.44 894.265 376.373 897.039 374.24L903.759 391.84C901.199 393.653 898.105 395.04 894.479 396C890.959 396.853 887.279 397.28 883.439 397.28ZM837.999 331.04V311.84H897.679V331.04H837.999ZM957.834 397.28C948.02 397.28 939.38 395.36 931.914 391.52C924.554 387.68 918.847 382.453 914.794 375.84C910.74 369.12 908.714 361.493 908.714 352.96C908.714 344.32 910.687 336.693 914.634 330.08C918.687 323.36 924.18 318.133 931.114 314.4C938.047 310.56 945.887 308.64 954.634 308.64C963.06 308.64 970.634 310.453 977.354 314.08C984.18 317.6 989.567 322.72 993.514 329.44C997.46 336.053 999.434 344 999.434 353.28C999.434 354.24 999.38 355.36 999.274 356.64C999.167 357.813 999.06 358.933 998.954 360H929.034V345.44H985.834L976.234 349.76C976.234 345.28 975.327 341.387 973.514 338.08C971.7 334.773 969.194 332.213 965.994 330.4C962.794 328.48 959.06 327.52 954.794 327.52C950.527 327.52 946.74 328.48 943.434 330.4C940.234 332.213 937.727 334.827 935.914 338.24C934.1 341.547 933.194 345.493 933.194 350.08V353.92C933.194 358.613 934.207 362.773 936.234 366.4C938.367 369.92 941.3 372.64 945.034 374.56C948.874 376.373 953.354 377.28 958.474 377.28C963.06 377.28 967.06 376.587 970.474 375.2C973.994 373.813 977.194 371.733 980.074 368.96L993.354 383.36C989.407 387.84 984.447 391.307 978.474 393.76C972.5 396.107 965.62 397.28 957.834 397.28ZM1045.01 397.28C1037.65 397.28 1030.56 396.427 1023.73 394.72C1017.01 392.907 1011.68 390.667 1007.73 388L1016.05 370.08C1020 372.533 1024.64 374.56 1029.97 376.16C1035.41 377.653 1040.74 378.4 1045.97 378.4C1051.73 378.4 1055.78 377.707 1058.13 376.32C1060.58 374.933 1061.81 373.013 1061.81 370.56C1061.81 368.533 1060.85 367.04 1058.93 366.08C1057.12 365.013 1054.66 364.213 1051.57 363.68C1048.48 363.147 1045.06 362.613 1041.33 362.08C1037.7 361.547 1034.02 360.853 1030.29 360C1026.56 359.04 1023.14 357.653 1020.05 355.84C1016.96 354.027 1014.45 351.573 1012.53 348.48C1010.72 345.387 1009.81 341.387 1009.81 336.48C1009.81 331.04 1011.36 326.24 1014.45 322.08C1017.65 317.92 1022.24 314.667 1028.21 312.32C1034.18 309.867 1041.33 308.64 1049.65 308.64C1055.52 308.64 1061.49 309.28 1067.57 310.56C1073.65 311.84 1078.72 313.707 1082.77 316.16L1074.45 333.92C1070.29 331.467 1066.08 329.813 1061.81 328.96C1057.65 328 1053.6 327.52 1049.65 327.52C1044.1 327.52 1040.05 328.267 1037.49 329.76C1034.93 331.253 1033.65 333.173 1033.65 335.52C1033.65 337.653 1034.56 339.253 1036.37 340.32C1038.29 341.387 1040.8 342.24 1043.89 342.88C1046.98 343.52 1050.34 344.107 1053.97 344.64C1057.7 345.067 1061.44 345.76 1065.17 346.72C1068.9 347.68 1072.26 349.067 1075.25 350.88C1078.34 352.587 1080.85 354.987 1082.77 358.08C1084.69 361.067 1085.65 365.013 1085.65 369.92C1085.65 375.253 1084.05 380 1080.85 384.16C1077.65 388.213 1073.01 391.413 1066.93 393.76C1060.96 396.107 1053.65 397.28 1045.01 397.28Z" fill="url(#paint2_linear_16_2)"/>
<path d="M567 420H257.42V416H567V420ZM1085.42 420H639.979V416H1085.42V420Z" fill="url(#paint3_linear_16_2)"/>
<defs>
<linearGradient id="paint0_linear_16_2" x1="655" y1="0" x2="655" y2="700" gradientUnits="userSpaceOnUse">
<stop stop-color="#090A16"/>
<stop offset="1" stop-color="#030306"/>
</linearGradient>
<radialGradient id="paint1_radial_16_2" cx="0" cy="0" r="1" gradientUnits="userSpaceOnUse" gradientTransform="translate(655 350) rotate(90) scale(350 655)">
<stop stop-color="#090A16"/>
<stop offset="1" stop-color="#030306"/>
</radialGradient>
<linearGradient id="paint2_linear_16_2" x1="113" y1="241" x2="1015.89" y2="750.776" gradientUnits="userSpaceOnUse">
<stop stop-color="white"/>
<stop offset="1" stop-color="#D4D4D4"/>
</linearGradient>
<linearGradient id="paint3_linear_16_2" x1="129.02" y1="418.096" x2="1177.42" y2="418.096" gradientUnits="userSpaceOnUse">
<stop stop-color="#5170FF"/>
<stop offset="1" stop-color="#FF66C4"/>
</linearGradient>
</defs>
</svg>
