<svg width="700" height="700" viewBox="0 0 700 700" fill="none" xmlns="http://www.w3.org/2000/svg">
<rect width="700" height="700" fill="url(#paint0_linear_9_2)"/>
<line y1="70.75" x2="699.999" y2="70.75" stroke="white" stroke-opacity="0.1" stroke-width="0.5"/>
<line y1="80.75" x2="699.999" y2="80.75" stroke="white" stroke-opacity="0.1" stroke-width="0.5"/>
<line y1="90.75" x2="699.999" y2="90.75" stroke="white" stroke-opacity="0.1" stroke-width="0.5"/>
<line y1="100.75" x2="699.999" y2="100.75" stroke="white" stroke-opacity="0.3" stroke-width="0.5"/>
<line y1="110.75" x2="699.999" y2="110.75" stroke="white" stroke-opacity="0.1" stroke-width="0.5"/>
<line y1="120.75" x2="699.999" y2="120.75" stroke="white" stroke-opacity="0.1" stroke-width="0.5"/>
<line y1="130.75" x2="699.999" y2="130.75" stroke="white" stroke-opacity="0.1" stroke-width="0.5"/>
<line y1="140.75" x2="699.999" y2="140.75" stroke="white" stroke-opacity="0.1" stroke-width="0.5"/>
<line y1="150.75" x2="699.999" y2="150.75" stroke="white" stroke-opacity="0.1" stroke-width="0.5"/>
<line y1="160.75" x2="699.999" y2="160.75" stroke="white" stroke-opacity="0.1" stroke-width="0.5"/>
<line y1="170.75" x2="699.999" y2="170.75" stroke="white" stroke-opacity="0.1" stroke-width="0.5"/>
<line y1="180.75" x2="699.999" y2="180.75" stroke="white" stroke-opacity="0.1" stroke-width="0.5"/>
<line y1="190.75" x2="699.999" y2="190.75" stroke="white" stroke-opacity="0.1" stroke-width="0.5"/>
<line y1="200.75" x2="699.999" y2="200.75" stroke="white" stroke-opacity="0.3" stroke-width="0.5"/>
<line y1="210.75" x2="699.999" y2="210.75" stroke="white" stroke-opacity="0.1" stroke-width="0.5"/>
<line y1="220.75" x2="699.999" y2="220.75" stroke="white" stroke-opacity="0.1" stroke-width="0.5"/>
<line y1="230.75" x2="699.999" y2="230.75" stroke="white" stroke-opacity="0.1" stroke-width="0.5"/>
<line y1="240.75" x2="699.999" y2="240.75" stroke="white" stroke-opacity="0.1" stroke-width="0.5"/>
<line y1="250.75" x2="699.999" y2="250.75" stroke="white" stroke-opacity="0.1" stroke-width="0.5"/>
<line y1="260.75" x2="699.999" y2="260.75" stroke="white" stroke-opacity="0.1" stroke-width="0.5"/>
<line y1="270.75" x2="699.999" y2="270.75" stroke="white" stroke-opacity="0.1" stroke-width="0.5"/>
<line y1="280.75" x2="699.999" y2="280.75" stroke="white" stroke-opacity="0.1" stroke-width="0.5"/>
<line y1="290.75" x2="699.999" y2="290.75" stroke="white" stroke-opacity="0.1" stroke-width="0.5"/>
<line y1="300.75" x2="699.999" y2="300.75" stroke="white" stroke-opacity="0.3" stroke-width="0.5"/>
<line y1="310.75" x2="699.999" y2="310.75" stroke="white" stroke-opacity="0.1" stroke-width="0.5"/>
<line y1="320.75" x2="699.999" y2="320.75" stroke="white" stroke-opacity="0.1" stroke-width="0.5"/>
<line y1="330.75" x2="699.999" y2="330.75" stroke="white" stroke-opacity="0.1" stroke-width="0.5"/>
<line y1="340.75" x2="699.999" y2="340.75" stroke="white" stroke-opacity="0.1" stroke-width="0.5"/>
<line y1="350.75" x2="699.999" y2="350.75" stroke="white" stroke-opacity="0.1" stroke-width="0.5"/>
<line y1="360.75" x2="699.999" y2="360.75" stroke="white" stroke-opacity="0.1" stroke-width="0.5"/>
<line y1="370.75" x2="699.999" y2="370.75" stroke="white" stroke-opacity="0.1" stroke-width="0.5"/>
<line y1="380.75" x2="699.999" y2="380.75" stroke="white" stroke-opacity="0.1" stroke-width="0.5"/>
<line y1="390.75" x2="699.999" y2="390.75" stroke="white" stroke-opacity="0.1" stroke-width="0.5"/>
<line y1="400.75" x2="699.999" y2="400.75" stroke="white" stroke-opacity="0.3" stroke-width="0.5"/>
<line y1="410.75" x2="699.999" y2="410.75" stroke="white" stroke-opacity="0.1" stroke-width="0.5"/>
<line y1="420.75" x2="699.999" y2="420.75" stroke="white" stroke-opacity="0.1" stroke-width="0.5"/>
<line y1="430.75" x2="699.999" y2="430.75" stroke="white" stroke-opacity="0.1" stroke-width="0.5"/>
<line y1="440.75" x2="699.999" y2="440.75" stroke="white" stroke-opacity="0.1" stroke-width="0.5"/>
<line y1="450.75" x2="699.999" y2="450.75" stroke="white" stroke-opacity="0.1" stroke-width="0.5"/>
<line y1="460.75" x2="699.999" y2="460.75" stroke="white" stroke-opacity="0.1" stroke-width="0.5"/>
<line y1="470.75" x2="699.999" y2="470.75" stroke="white" stroke-opacity="0.1" stroke-width="0.5"/>
<line y1="480.75" x2="699.999" y2="480.75" stroke="white" stroke-opacity="0.1" stroke-width="0.5"/>
<line y1="490.75" x2="699.999" y2="490.75" stroke="white" stroke-opacity="0.1" stroke-width="0.5"/>
<line y1="500.75" x2="699.999" y2="500.75" stroke="white" stroke-opacity="0.3" stroke-width="0.5"/>
<line y1="510.75" x2="699.999" y2="510.75" stroke="white" stroke-opacity="0.1" stroke-width="0.5"/>
<line y1="520.75" x2="699.999" y2="520.75" stroke="white" stroke-opacity="0.1" stroke-width="0.5"/>
<line y1="530.75" x2="699.999" y2="530.75" stroke="white" stroke-opacity="0.1" stroke-width="0.5"/>
<line y1="540.75" x2="699.999" y2="540.75" stroke="white" stroke-opacity="0.1" stroke-width="0.5"/>
<line y1="550.75" x2="699.999" y2="550.75" stroke="white" stroke-opacity="0.1" stroke-width="0.5"/>
<line y1="560.75" x2="699.999" y2="560.75" stroke="white" stroke-opacity="0.1" stroke-width="0.5"/>
<line y1="570.75" x2="699.999" y2="570.75" stroke="white" stroke-opacity="0.1" stroke-width="0.5"/>
<line y1="580.75" x2="699.999" y2="580.75" stroke="white" stroke-opacity="0.1" stroke-width="0.5"/>
<line y1="590.75" x2="699.999" y2="590.75" stroke="white" stroke-opacity="0.1" stroke-width="0.5"/>
<line y1="600.75" x2="699.999" y2="600.75" stroke="white" stroke-opacity="0.3" stroke-width="0.5"/>
<line y1="610.75" x2="699.999" y2="610.75" stroke="white" stroke-opacity="0.1" stroke-width="0.5"/>
<line y1="620.75" x2="699.999" y2="620.75" stroke="white" stroke-opacity="0.1" stroke-width="0.5"/>
<line y1="630.75" x2="699.999" y2="630.75" stroke="white" stroke-opacity="0.1" stroke-width="0.5"/>
<line y1="640.75" x2="699.999" y2="640.75" stroke="white" stroke-opacity="0.1" stroke-width="0.5"/>
<line y1="650.75" x2="699.999" y2="650.75" stroke="white" stroke-opacity="0.1" stroke-width="0.5"/>
<line y1="660.75" x2="699.999" y2="660.75" stroke="white" stroke-opacity="0.1" stroke-width="0.5"/>
<line y1="670.75" x2="699.999" y2="670.75" stroke="white" stroke-opacity="0.1" stroke-width="0.5"/>
<line y1="680.75" x2="699.999" y2="680.75" stroke="white" stroke-opacity="0.1" stroke-width="0.5"/>
<line y1="690.75" x2="699.999" y2="690.75" stroke="white" stroke-opacity="0.1" stroke-width="0.5"/>
<line x1="0.000976562" y1="60.75" x2="700" y2="60.75" stroke="white" stroke-opacity="0.1" stroke-width="0.5"/>
<line x1="0.000976562" y1="50.75" x2="700" y2="50.75" stroke="white" stroke-opacity="0.1" stroke-width="0.5"/>
<line x1="0.000976562" y1="40.75" x2="700" y2="40.75" stroke="white" stroke-opacity="0.1" stroke-width="0.5"/>
<line x1="0.000976562" y1="30.75" x2="700" y2="30.75" stroke="white" stroke-opacity="0.1" stroke-width="0.5"/>
<line x1="0.000976562" y1="20.75" x2="700" y2="20.75" stroke="white" stroke-opacity="0.1" stroke-width="0.5"/>
<line x1="0.000976562" y1="10.75" x2="700" y2="10.75" stroke="white" stroke-opacity="0.1" stroke-width="0.5"/>
<line x1="9.75" y1="700" x2="9.75" stroke="white" stroke-opacity="0.1" stroke-width="0.5"/>
<line x1="19.75" y1="700" x2="19.75" stroke="white" stroke-opacity="0.1" stroke-width="0.5"/>
<line x1="29.75" y1="700" x2="29.75" stroke="white" stroke-opacity="0.1" stroke-width="0.5"/>
<line x1="39.75" y1="700" x2="39.75" stroke="white" stroke-opacity="0.1" stroke-width="0.5"/>
<line x1="49.75" y1="700" x2="49.75" stroke="white" stroke-opacity="0.1" stroke-width="0.5"/>
<line x1="59.75" y1="700" x2="59.75" stroke="white" stroke-opacity="0.1" stroke-width="0.5"/>
<line x1="69.75" y1="700" x2="69.75" stroke="white" stroke-opacity="0.1" stroke-width="0.5"/>
<line x1="79.75" y1="700" x2="79.75" stroke="white" stroke-opacity="0.1" stroke-width="0.5"/>
<line x1="89.75" y1="700" x2="89.75" stroke="white" stroke-opacity="0.1" stroke-width="0.5"/>
<line x1="99.75" y1="700" x2="99.75" stroke="white" stroke-opacity="0.3" stroke-width="0.5"/>
<line x1="109.75" y1="700" x2="109.75" stroke="white" stroke-opacity="0.1" stroke-width="0.5"/>
<line x1="119.75" y1="700" x2="119.75" stroke="white" stroke-opacity="0.1" stroke-width="0.5"/>
<line x1="129.75" y1="700" x2="129.75" stroke="white" stroke-opacity="0.1" stroke-width="0.5"/>
<line x1="139.75" y1="700" x2="139.75" stroke="white" stroke-opacity="0.1" stroke-width="0.5"/>
<line x1="149.75" y1="700" x2="149.75" stroke="white" stroke-opacity="0.1" stroke-width="0.5"/>
<line x1="159.75" y1="700" x2="159.75" stroke="white" stroke-opacity="0.1" stroke-width="0.5"/>
<line x1="169.75" y1="700" x2="169.75" stroke="white" stroke-opacity="0.1" stroke-width="0.5"/>
<line x1="179.75" y1="700" x2="179.75" stroke="white" stroke-opacity="0.1" stroke-width="0.5"/>
<line x1="189.75" y1="700" x2="189.75" stroke="white" stroke-opacity="0.1" stroke-width="0.5"/>
<line x1="199.75" y1="700" x2="199.75" stroke="white" stroke-opacity="0.3" stroke-width="0.5"/>
<line x1="209.75" y1="700" x2="209.75" stroke="white" stroke-opacity="0.1" stroke-width="0.5"/>
<line x1="219.75" y1="700" x2="219.75" stroke="white" stroke-opacity="0.1" stroke-width="0.5"/>
<line x1="229.75" y1="700" x2="229.75" stroke="white" stroke-opacity="0.1" stroke-width="0.5"/>
<line x1="239.75" y1="700" x2="239.75" stroke="white" stroke-opacity="0.1" stroke-width="0.5"/>
<line x1="249.75" y1="700" x2="249.75" stroke="white" stroke-opacity="0.1" stroke-width="0.5"/>
<line x1="259.75" y1="700" x2="259.75" stroke="white" stroke-opacity="0.1" stroke-width="0.5"/>
<line x1="269.75" y1="700" x2="269.75" stroke="white" stroke-opacity="0.1" stroke-width="0.5"/>
<line x1="279.75" y1="700" x2="279.75" stroke="white" stroke-opacity="0.1" stroke-width="0.5"/>
<line x1="289.75" y1="700" x2="289.75" stroke="white" stroke-opacity="0.1" stroke-width="0.5"/>
<line x1="299.75" y1="700" x2="299.75" stroke="white" stroke-opacity="0.3" stroke-width="0.5"/>
<line x1="309.75" y1="700" x2="309.75" stroke="white" stroke-opacity="0.1" stroke-width="0.5"/>
<line x1="319.75" y1="700" x2="319.75" stroke="white" stroke-opacity="0.1" stroke-width="0.5"/>
<line x1="329.75" y1="700" x2="329.75" stroke="white" stroke-opacity="0.1" stroke-width="0.5"/>
<line x1="339.75" y1="700" x2="339.75" stroke="white" stroke-opacity="0.1" stroke-width="0.5"/>
<line x1="349.75" y1="700" x2="349.75" stroke="white" stroke-opacity="0.1" stroke-width="0.5"/>
<line x1="359.75" y1="700" x2="359.75" stroke="white" stroke-opacity="0.1" stroke-width="0.5"/>
<line x1="369.75" y1="700" x2="369.75" stroke="white" stroke-opacity="0.1" stroke-width="0.5"/>
<line x1="379.75" y1="700" x2="379.75" stroke="white" stroke-opacity="0.1" stroke-width="0.5"/>
<line x1="389.75" y1="700" x2="389.75" stroke="white" stroke-opacity="0.1" stroke-width="0.5"/>
<line x1="399.75" y1="700" x2="399.75" stroke="white" stroke-opacity="0.3" stroke-width="0.5"/>
<line x1="409.75" y1="700" x2="409.75" stroke="white" stroke-opacity="0.1" stroke-width="0.5"/>
<line x1="419.75" y1="700" x2="419.75" stroke="white" stroke-opacity="0.1" stroke-width="0.5"/>
<line x1="429.75" y1="700" x2="429.75" stroke="white" stroke-opacity="0.1" stroke-width="0.5"/>
<line x1="439.75" y1="700" x2="439.75" stroke="white" stroke-opacity="0.1" stroke-width="0.5"/>
<line x1="449.75" y1="700" x2="449.75" stroke="white" stroke-opacity="0.1" stroke-width="0.5"/>
<line x1="459.75" y1="700" x2="459.75" stroke="white" stroke-opacity="0.1" stroke-width="0.5"/>
<line x1="469.75" y1="700" x2="469.75" stroke="white" stroke-opacity="0.1" stroke-width="0.5"/>
<line x1="479.75" y1="700" x2="479.75" stroke="white" stroke-opacity="0.1" stroke-width="0.5"/>
<line x1="489.75" y1="700" x2="489.75" stroke="white" stroke-opacity="0.1" stroke-width="0.5"/>
<line x1="499.75" y1="700" x2="499.75" stroke="white" stroke-opacity="0.3" stroke-width="0.5"/>
<line x1="509.75" y1="700" x2="509.75" stroke="white" stroke-opacity="0.1" stroke-width="0.5"/>
<line x1="519.75" y1="700" x2="519.75" stroke="white" stroke-opacity="0.1" stroke-width="0.5"/>
<line x1="529.75" y1="700" x2="529.75" stroke="white" stroke-opacity="0.1" stroke-width="0.5"/>
<line x1="539.75" y1="700" x2="539.75" stroke="white" stroke-opacity="0.1" stroke-width="0.5"/>
<line x1="549.75" y1="700" x2="549.75" stroke="white" stroke-opacity="0.1" stroke-width="0.5"/>
<line x1="559.75" y1="700" x2="559.75" stroke="white" stroke-opacity="0.1" stroke-width="0.5"/>
<line x1="569.75" y1="700" x2="569.75" stroke="white" stroke-opacity="0.1" stroke-width="0.5"/>
<line x1="579.75" y1="700" x2="579.75" stroke="white" stroke-opacity="0.1" stroke-width="0.5"/>
<line x1="589.75" y1="700" x2="589.75" stroke="white" stroke-opacity="0.1" stroke-width="0.5"/>
<line x1="599.75" y1="700" x2="599.75" stroke="white" stroke-opacity="0.3" stroke-width="0.5"/>
<line x1="609.75" y1="700" x2="609.75" stroke="white" stroke-opacity="0.1" stroke-width="0.5"/>
<line x1="619.75" y1="700" x2="619.75" stroke="white" stroke-opacity="0.1" stroke-width="0.5"/>
<line x1="629.75" y1="700" x2="629.75" stroke="white" stroke-opacity="0.1" stroke-width="0.5"/>
<line x1="639.75" y1="700" x2="639.75" stroke="white" stroke-opacity="0.1" stroke-width="0.5"/>
<line x1="649.75" y1="700" x2="649.75" stroke="white" stroke-opacity="0.1" stroke-width="0.5"/>
<line x1="659.75" y1="700" x2="659.75" stroke="white" stroke-opacity="0.1" stroke-width="0.5"/>
<line x1="669.75" y1="700" x2="669.75" stroke="white" stroke-opacity="0.1" stroke-width="0.5"/>
<line x1="679.75" y1="700" x2="679.75" stroke="white" stroke-opacity="0.1" stroke-width="0.5"/>
<line x1="689.75" y1="700" x2="689.75" stroke="white" stroke-opacity="0.1" stroke-width="0.5"/>
<rect width="700" height="700" fill="url(#paint1_radial_9_2)" fill-opacity="0.5"/>
<path d="M291.958 292.06L177 407.018H291.958V292.009H291.907L291.958 292.06Z" fill="#D9D9D9"/>
<path d="M521.977 292.06L407.019 407.018H521.977V292.009H521.926L521.977 292.06Z" fill="#D9D9D9"/>
<path d="M522.067 291.958L407.019 177.091L407.109 292.049L522.118 291.958L522.118 291.907L522.067 291.958Z" fill="#D9D9D9"/>
<rect x="177" y="407.018" width="115.009" height="115.009" fill="#D9D9D9"/>
<rect x="407.018" y="407.018" width="115.009" height="115.009" fill="#D9D9D9"/>
<rect x="407.018" y="177.09" width="115.009" height="115.009" transform="rotate(89.9548 407.018 177.09)" fill="#D9D9D9"/>
<defs>
<linearGradient id="paint0_linear_9_2" x1="0" y1="0" x2="700" y2="700" gradientUnits="userSpaceOnUse">
<stop stop-color="#090A16"/>
<stop offset="1" stop-color="#030306"/>
</linearGradient>
<radialGradient id="paint1_radial_9_2" cx="0" cy="0" r="1" gradientUnits="userSpaceOnUse" gradientTransform="translate(350 350) rotate(90) scale(350)">
<stop stop-color="#090A16"/>
<stop offset="1" stop-color="#030306"/>
</radialGradient>
</defs>
</svg>
