<svg width="700" height="700" viewBox="0 0 700 700" fill="none" xmlns="http://www.w3.org/2000/svg">
<rect width="700" height="700" fill="url(#paint0_linear_2_206)"/>
<line y1="69.75" x2="699.999" y2="69.75" stroke="white" stroke-opacity="0.1" stroke-width="0.5"/>
<line y1="79.75" x2="699.999" y2="79.75" stroke="white" stroke-opacity="0.1" stroke-width="0.5"/>
<line y1="89.75" x2="699.999" y2="89.75" stroke="white" stroke-opacity="0.1" stroke-width="0.5"/>
<line y1="99.75" x2="699.999" y2="99.75" stroke="white" stroke-opacity="0.3" stroke-width="0.5"/>
<line y1="109.75" x2="699.999" y2="109.75" stroke="white" stroke-opacity="0.1" stroke-width="0.5"/>
<line y1="119.75" x2="699.999" y2="119.75" stroke="white" stroke-opacity="0.1" stroke-width="0.5"/>
<line y1="129.75" x2="699.999" y2="129.75" stroke="white" stroke-opacity="0.1" stroke-width="0.5"/>
<line y1="139.75" x2="699.999" y2="139.75" stroke="white" stroke-opacity="0.1" stroke-width="0.5"/>
<line y1="149.75" x2="699.999" y2="149.75" stroke="white" stroke-opacity="0.1" stroke-width="0.5"/>
<line y1="159.75" x2="699.999" y2="159.75" stroke="white" stroke-opacity="0.1" stroke-width="0.5"/>
<line y1="169.75" x2="699.999" y2="169.75" stroke="white" stroke-opacity="0.1" stroke-width="0.5"/>
<line y1="179.75" x2="699.999" y2="179.75" stroke="white" stroke-opacity="0.1" stroke-width="0.5"/>
<line y1="189.75" x2="699.999" y2="189.75" stroke="white" stroke-opacity="0.1" stroke-width="0.5"/>
<line y1="199.75" x2="699.999" y2="199.75" stroke="white" stroke-opacity="0.3" stroke-width="0.5"/>
<line y1="209.75" x2="699.999" y2="209.75" stroke="white" stroke-opacity="0.1" stroke-width="0.5"/>
<line y1="219.75" x2="699.999" y2="219.75" stroke="white" stroke-opacity="0.1" stroke-width="0.5"/>
<line y1="229.75" x2="699.999" y2="229.75" stroke="white" stroke-opacity="0.1" stroke-width="0.5"/>
<line y1="239.75" x2="699.999" y2="239.75" stroke="white" stroke-opacity="0.1" stroke-width="0.5"/>
<line y1="249.75" x2="699.999" y2="249.75" stroke="white" stroke-opacity="0.1" stroke-width="0.5"/>
<line y1="259.75" x2="699.999" y2="259.75" stroke="white" stroke-opacity="0.1" stroke-width="0.5"/>
<line y1="269.75" x2="699.999" y2="269.75" stroke="white" stroke-opacity="0.1" stroke-width="0.5"/>
<line y1="279.75" x2="699.999" y2="279.75" stroke="white" stroke-opacity="0.1" stroke-width="0.5"/>
<line y1="289.75" x2="699.999" y2="289.75" stroke="white" stroke-opacity="0.1" stroke-width="0.5"/>
<line y1="299.75" x2="699.999" y2="299.75" stroke="white" stroke-opacity="0.3" stroke-width="0.5"/>
<line y1="309.75" x2="699.999" y2="309.75" stroke="white" stroke-opacity="0.1" stroke-width="0.5"/>
<line y1="319.75" x2="699.999" y2="319.75" stroke="white" stroke-opacity="0.1" stroke-width="0.5"/>
<line y1="329.75" x2="699.999" y2="329.75" stroke="white" stroke-opacity="0.1" stroke-width="0.5"/>
<line y1="339.75" x2="699.999" y2="339.75" stroke="white" stroke-opacity="0.1" stroke-width="0.5"/>
<line y1="349.75" x2="699.999" y2="349.75" stroke="white" stroke-opacity="0.1" stroke-width="0.5"/>
<line y1="359.75" x2="699.999" y2="359.75" stroke="white" stroke-opacity="0.1" stroke-width="0.5"/>
<line y1="369.75" x2="699.999" y2="369.75" stroke="white" stroke-opacity="0.1" stroke-width="0.5"/>
<line y1="379.75" x2="699.999" y2="379.75" stroke="white" stroke-opacity="0.1" stroke-width="0.5"/>
<line y1="389.75" x2="699.999" y2="389.75" stroke="white" stroke-opacity="0.1" stroke-width="0.5"/>
<line y1="399.75" x2="699.999" y2="399.75" stroke="white" stroke-opacity="0.3" stroke-width="0.5"/>
<line y1="409.75" x2="699.999" y2="409.75" stroke="white" stroke-opacity="0.1" stroke-width="0.5"/>
<line y1="419.75" x2="699.999" y2="419.75" stroke="white" stroke-opacity="0.1" stroke-width="0.5"/>
<line y1="429.75" x2="699.999" y2="429.75" stroke="white" stroke-opacity="0.1" stroke-width="0.5"/>
<line y1="439.75" x2="699.999" y2="439.75" stroke="white" stroke-opacity="0.1" stroke-width="0.5"/>
<line y1="449.75" x2="699.999" y2="449.75" stroke="white" stroke-opacity="0.1" stroke-width="0.5"/>
<line y1="459.75" x2="699.999" y2="459.75" stroke="white" stroke-opacity="0.1" stroke-width="0.5"/>
<line y1="469.75" x2="699.999" y2="469.75" stroke="white" stroke-opacity="0.1" stroke-width="0.5"/>
<line y1="479.75" x2="699.999" y2="479.75" stroke="white" stroke-opacity="0.1" stroke-width="0.5"/>
<line y1="489.75" x2="699.999" y2="489.75" stroke="white" stroke-opacity="0.1" stroke-width="0.5"/>
<line y1="499.75" x2="699.999" y2="499.75" stroke="white" stroke-opacity="0.3" stroke-width="0.5"/>
<line y1="509.75" x2="699.999" y2="509.75" stroke="white" stroke-opacity="0.1" stroke-width="0.5"/>
<line y1="519.75" x2="699.999" y2="519.75" stroke="white" stroke-opacity="0.1" stroke-width="0.5"/>
<line y1="529.75" x2="699.999" y2="529.75" stroke="white" stroke-opacity="0.1" stroke-width="0.5"/>
<line y1="539.75" x2="699.999" y2="539.75" stroke="white" stroke-opacity="0.1" stroke-width="0.5"/>
<line y1="549.75" x2="699.999" y2="549.75" stroke="white" stroke-opacity="0.1" stroke-width="0.5"/>
<line y1="559.75" x2="699.999" y2="559.75" stroke="white" stroke-opacity="0.1" stroke-width="0.5"/>
<line y1="569.75" x2="699.999" y2="569.75" stroke="white" stroke-opacity="0.1" stroke-width="0.5"/>
<line y1="579.75" x2="699.999" y2="579.75" stroke="white" stroke-opacity="0.1" stroke-width="0.5"/>
<line y1="589.75" x2="699.999" y2="589.75" stroke="white" stroke-opacity="0.1" stroke-width="0.5"/>
<line y1="599.75" x2="699.999" y2="599.75" stroke="white" stroke-opacity="0.3" stroke-width="0.5"/>
<line y1="609.75" x2="699.999" y2="609.75" stroke="white" stroke-opacity="0.1" stroke-width="0.5"/>
<line y1="619.75" x2="699.999" y2="619.75" stroke="white" stroke-opacity="0.1" stroke-width="0.5"/>
<line y1="629.75" x2="699.999" y2="629.75" stroke="white" stroke-opacity="0.1" stroke-width="0.5"/>
<line y1="639.75" x2="699.999" y2="639.75" stroke="white" stroke-opacity="0.1" stroke-width="0.5"/>
<line y1="649.75" x2="699.999" y2="649.75" stroke="white" stroke-opacity="0.1" stroke-width="0.5"/>
<line y1="659.75" x2="699.999" y2="659.75" stroke="white" stroke-opacity="0.1" stroke-width="0.5"/>
<line y1="669.75" x2="699.999" y2="669.75" stroke="white" stroke-opacity="0.1" stroke-width="0.5"/>
<line y1="679.75" x2="699.999" y2="679.75" stroke="white" stroke-opacity="0.1" stroke-width="0.5"/>
<line y1="689.75" x2="699.999" y2="689.75" stroke="white" stroke-opacity="0.1" stroke-width="0.5"/>
<line x1="0.000854492" y1="59.75" x2="700" y2="59.75" stroke="white" stroke-opacity="0.1" stroke-width="0.5"/>
<line x1="0.000854492" y1="49.75" x2="700" y2="49.75" stroke="white" stroke-opacity="0.1" stroke-width="0.5"/>
<line x1="0.000854492" y1="39.75" x2="700" y2="39.75" stroke="white" stroke-opacity="0.1" stroke-width="0.5"/>
<line x1="0.000854492" y1="29.75" x2="700" y2="29.75" stroke="white" stroke-opacity="0.1" stroke-width="0.5"/>
<line x1="0.000854492" y1="19.75" x2="700" y2="19.75" stroke="white" stroke-opacity="0.1" stroke-width="0.5"/>
<line x1="0.000854492" y1="9.75" x2="700" y2="9.75" stroke="white" stroke-opacity="0.1" stroke-width="0.5"/>
<line x1="9.75" y1="700" x2="9.75" stroke="white" stroke-opacity="0.1" stroke-width="0.5"/>
<line x1="19.75" y1="700" x2="19.75" stroke="white" stroke-opacity="0.1" stroke-width="0.5"/>
<line x1="29.75" y1="700" x2="29.75" stroke="white" stroke-opacity="0.1" stroke-width="0.5"/>
<line x1="39.75" y1="700" x2="39.75" stroke="white" stroke-opacity="0.1" stroke-width="0.5"/>
<line x1="49.75" y1="700" x2="49.75" stroke="white" stroke-opacity="0.1" stroke-width="0.5"/>
<line x1="59.75" y1="700" x2="59.75" stroke="white" stroke-opacity="0.1" stroke-width="0.5"/>
<line x1="69.75" y1="700" x2="69.75" stroke="white" stroke-opacity="0.1" stroke-width="0.5"/>
<line x1="79.75" y1="700" x2="79.75" stroke="white" stroke-opacity="0.1" stroke-width="0.5"/>
<line x1="89.75" y1="700" x2="89.75" stroke="white" stroke-opacity="0.1" stroke-width="0.5"/>
<line x1="99.75" y1="700" x2="99.75" stroke="white" stroke-opacity="0.3" stroke-width="0.5"/>
<line x1="109.75" y1="700" x2="109.75" stroke="white" stroke-opacity="0.1" stroke-width="0.5"/>
<line x1="119.75" y1="700" x2="119.75" stroke="white" stroke-opacity="0.1" stroke-width="0.5"/>
<line x1="129.75" y1="700" x2="129.75" stroke="white" stroke-opacity="0.1" stroke-width="0.5"/>
<line x1="139.75" y1="700" x2="139.75" stroke="white" stroke-opacity="0.1" stroke-width="0.5"/>
<line x1="149.75" y1="700" x2="149.75" stroke="white" stroke-opacity="0.1" stroke-width="0.5"/>
<line x1="159.75" y1="700" x2="159.75" stroke="white" stroke-opacity="0.1" stroke-width="0.5"/>
<line x1="169.75" y1="700" x2="169.75" stroke="white" stroke-opacity="0.1" stroke-width="0.5"/>
<line x1="179.75" y1="700" x2="179.75" stroke="white" stroke-opacity="0.1" stroke-width="0.5"/>
<line x1="189.75" y1="700" x2="189.75" stroke="white" stroke-opacity="0.1" stroke-width="0.5"/>
<line x1="199.75" y1="700" x2="199.75" stroke="white" stroke-opacity="0.3" stroke-width="0.5"/>
<line x1="209.75" y1="700" x2="209.75" stroke="white" stroke-opacity="0.1" stroke-width="0.5"/>
<line x1="219.75" y1="700" x2="219.75" stroke="white" stroke-opacity="0.1" stroke-width="0.5"/>
<line x1="229.75" y1="700" x2="229.75" stroke="white" stroke-opacity="0.1" stroke-width="0.5"/>
<line x1="239.75" y1="700" x2="239.75" stroke="white" stroke-opacity="0.1" stroke-width="0.5"/>
<line x1="249.75" y1="700" x2="249.75" stroke="white" stroke-opacity="0.1" stroke-width="0.5"/>
<line x1="259.75" y1="700" x2="259.75" stroke="white" stroke-opacity="0.1" stroke-width="0.5"/>
<line x1="269.75" y1="700" x2="269.75" stroke="white" stroke-opacity="0.1" stroke-width="0.5"/>
<line x1="279.75" y1="700" x2="279.75" stroke="white" stroke-opacity="0.1" stroke-width="0.5"/>
<line x1="289.75" y1="700" x2="289.75" stroke="white" stroke-opacity="0.1" stroke-width="0.5"/>
<line x1="299.75" y1="700" x2="299.75" stroke="white" stroke-opacity="0.3" stroke-width="0.5"/>
<line x1="309.75" y1="700" x2="309.75" stroke="white" stroke-opacity="0.1" stroke-width="0.5"/>
<line x1="319.75" y1="700" x2="319.75" stroke="white" stroke-opacity="0.1" stroke-width="0.5"/>
<line x1="329.75" y1="700" x2="329.75" stroke="white" stroke-opacity="0.1" stroke-width="0.5"/>
<line x1="339.75" y1="700" x2="339.75" stroke="white" stroke-opacity="0.1" stroke-width="0.5"/>
<line x1="349.75" y1="700" x2="349.75" stroke="white" stroke-opacity="0.1" stroke-width="0.5"/>
<line x1="359.75" y1="700" x2="359.75" stroke="white" stroke-opacity="0.1" stroke-width="0.5"/>
<line x1="369.75" y1="700" x2="369.75" stroke="white" stroke-opacity="0.1" stroke-width="0.5"/>
<line x1="379.75" y1="700" x2="379.75" stroke="white" stroke-opacity="0.1" stroke-width="0.5"/>
<line x1="389.75" y1="700" x2="389.75" stroke="white" stroke-opacity="0.1" stroke-width="0.5"/>
<line x1="399.75" y1="700" x2="399.75" stroke="white" stroke-opacity="0.3" stroke-width="0.5"/>
<line x1="409.75" y1="700" x2="409.75" stroke="white" stroke-opacity="0.1" stroke-width="0.5"/>
<line x1="419.75" y1="700" x2="419.75" stroke="white" stroke-opacity="0.1" stroke-width="0.5"/>
<line x1="429.75" y1="700" x2="429.75" stroke="white" stroke-opacity="0.1" stroke-width="0.5"/>
<line x1="439.75" y1="700" x2="439.75" stroke="white" stroke-opacity="0.1" stroke-width="0.5"/>
<line x1="449.75" y1="700" x2="449.75" stroke="white" stroke-opacity="0.1" stroke-width="0.5"/>
<line x1="459.75" y1="700" x2="459.75" stroke="white" stroke-opacity="0.1" stroke-width="0.5"/>
<line x1="469.75" y1="700" x2="469.75" stroke="white" stroke-opacity="0.1" stroke-width="0.5"/>
<line x1="479.75" y1="700" x2="479.75" stroke="white" stroke-opacity="0.1" stroke-width="0.5"/>
<line x1="489.75" y1="700" x2="489.75" stroke="white" stroke-opacity="0.1" stroke-width="0.5"/>
<line x1="499.75" y1="700" x2="499.75" stroke="white" stroke-opacity="0.3" stroke-width="0.5"/>
<line x1="509.75" y1="700" x2="509.75" stroke="white" stroke-opacity="0.1" stroke-width="0.5"/>
<line x1="519.75" y1="700" x2="519.75" stroke="white" stroke-opacity="0.1" stroke-width="0.5"/>
<line x1="529.75" y1="700" x2="529.75" stroke="white" stroke-opacity="0.1" stroke-width="0.5"/>
<line x1="539.75" y1="700" x2="539.75" stroke="white" stroke-opacity="0.1" stroke-width="0.5"/>
<line x1="549.75" y1="700" x2="549.75" stroke="white" stroke-opacity="0.1" stroke-width="0.5"/>
<line x1="559.75" y1="700" x2="559.75" stroke="white" stroke-opacity="0.1" stroke-width="0.5"/>
<line x1="569.75" y1="700" x2="569.75" stroke="white" stroke-opacity="0.1" stroke-width="0.5"/>
<line x1="579.75" y1="700" x2="579.75" stroke="white" stroke-opacity="0.1" stroke-width="0.5"/>
<line x1="589.75" y1="700" x2="589.75" stroke="white" stroke-opacity="0.1" stroke-width="0.5"/>
<line x1="599.75" y1="700" x2="599.75" stroke="white" stroke-opacity="0.3" stroke-width="0.5"/>
<line x1="609.75" y1="700" x2="609.75" stroke="white" stroke-opacity="0.1" stroke-width="0.5"/>
<line x1="619.75" y1="700" x2="619.75" stroke="white" stroke-opacity="0.1" stroke-width="0.5"/>
<line x1="629.75" y1="700" x2="629.75" stroke="white" stroke-opacity="0.1" stroke-width="0.5"/>
<line x1="639.75" y1="700" x2="639.75" stroke="white" stroke-opacity="0.1" stroke-width="0.5"/>
<line x1="649.75" y1="700" x2="649.75" stroke="white" stroke-opacity="0.1" stroke-width="0.5"/>
<line x1="659.75" y1="700" x2="659.75" stroke="white" stroke-opacity="0.1" stroke-width="0.5"/>
<line x1="669.75" y1="700" x2="669.75" stroke="white" stroke-opacity="0.1" stroke-width="0.5"/>
<line x1="679.75" y1="700" x2="679.75" stroke="white" stroke-opacity="0.1" stroke-width="0.5"/>
<line x1="689.75" y1="700" x2="689.75" stroke="white" stroke-opacity="0.1" stroke-width="0.5"/>
<rect width="700" height="700" fill="url(#paint1_radial_2_206)" fill-opacity="0.5"/>
<path d="M89.315 414V288H113.435L187.775 378.72H176.075V288H204.875V414H180.935L106.415 323.28H118.115V414H89.315ZM278.786 415.44C268.466 415.44 259.286 413.28 251.246 408.96C243.326 404.64 237.026 398.76 232.346 391.32C227.786 383.76 225.506 375.18 225.506 365.58C225.506 355.86 227.786 347.28 232.346 339.84C237.026 332.28 243.326 326.4 251.246 322.2C259.286 317.88 268.466 315.72 278.786 315.72C288.986 315.72 298.106 317.88 306.146 322.2C314.186 326.4 320.486 332.22 325.046 339.66C329.606 347.1 331.886 355.74 331.886 365.58C331.886 375.18 329.606 383.76 325.046 391.32C320.486 398.76 314.186 404.64 306.146 408.96C298.106 413.28 288.986 415.44 278.786 415.44ZM278.786 392.4C283.466 392.4 287.666 391.32 291.386 389.16C295.106 387 298.046 383.94 300.206 379.98C302.366 375.9 303.446 371.1 303.446 365.58C303.446 359.94 302.366 355.14 300.206 351.18C298.046 347.22 295.106 344.16 291.386 342C287.666 339.84 283.466 338.76 278.786 338.76C274.106 338.76 269.906 339.84 266.186 342C262.466 344.16 259.466 347.22 257.186 351.18C255.026 355.14 253.946 359.94 253.946 365.58C253.946 371.1 255.026 375.9 257.186 379.98C259.466 383.94 262.466 387 266.186 389.16C269.906 391.32 274.106 392.4 278.786 392.4ZM397.455 415.44C387.015 415.44 377.715 413.34 369.555 409.14C361.395 404.82 354.975 398.88 350.295 391.32C345.735 383.76 343.455 375.18 343.455 365.58C343.455 355.86 345.735 347.28 350.295 339.84C354.975 332.28 361.395 326.4 369.555 322.2C377.715 317.88 387.015 315.72 397.455 315.72C407.655 315.72 416.535 317.88 424.095 322.2C431.655 326.4 437.235 332.46 440.835 340.38L419.055 352.08C416.535 347.52 413.355 344.16 409.515 342C405.795 339.84 401.715 338.76 397.275 338.76C392.475 338.76 388.155 339.84 384.315 342C380.475 344.16 377.415 347.22 375.135 351.18C372.975 355.14 371.895 359.94 371.895 365.58C371.895 371.22 372.975 376.02 375.135 379.98C377.415 383.94 380.475 387 384.315 389.16C388.155 391.32 392.475 392.4 397.275 392.4C401.715 392.4 405.795 391.38 409.515 389.34C413.355 387.18 416.535 383.76 419.055 379.08L440.835 390.96C437.235 398.76 431.655 404.82 424.095 409.14C416.535 413.34 407.655 415.44 397.455 415.44ZM457.003 414V317.16H483.823V344.52L480.043 336.6C482.923 329.76 487.543 324.6 493.903 321.12C500.263 317.52 508.003 315.72 517.123 315.72V341.64C515.923 341.52 514.843 341.46 513.883 341.46C512.923 341.34 511.903 341.28 510.823 341.28C503.143 341.28 496.903 343.5 492.103 347.94C487.423 352.26 485.083 359.04 485.083 368.28V414H457.003ZM586.891 414V395.1L585.091 390.96V357.12C585.091 351.12 583.231 346.44 579.511 343.08C575.911 339.72 570.331 338.04 562.771 338.04C557.611 338.04 552.511 338.88 547.471 340.56C542.551 342.12 538.351 344.28 534.871 347.04L524.791 327.42C530.071 323.7 536.431 320.82 543.871 318.78C551.311 316.74 558.871 315.72 566.551 315.72C581.311 315.72 592.771 319.2 600.931 326.16C609.091 333.12 613.171 343.98 613.171 358.74V414H586.891ZM557.371 415.44C549.811 415.44 543.331 414.18 537.931 411.66C532.531 409.02 528.391 405.48 525.511 401.04C522.631 396.6 521.191 391.62 521.191 386.1C521.191 380.34 522.571 375.3 525.331 370.98C528.211 366.66 532.711 363.3 538.831 360.9C544.951 358.38 552.931 357.12 562.771 357.12H588.511V373.5H565.831C559.231 373.5 554.671 374.58 552.151 376.74C549.751 378.9 548.551 381.6 548.551 384.84C548.551 388.44 549.931 391.32 552.691 393.48C555.571 395.52 559.471 396.54 564.391 396.54C569.071 396.54 573.271 395.46 576.991 393.3C580.711 391.02 583.411 387.72 585.091 383.4L589.411 396.36C587.371 402.6 583.651 407.34 578.251 410.58C572.851 413.82 565.891 415.44 557.371 415.44Z" fill="url(#paint2_linear_2_206)"/>
<defs>
<linearGradient id="paint0_linear_2_206" x1="0" y1="0" x2="700" y2="700" gradientUnits="userSpaceOnUse">
<stop stop-color="#090A16"/>
<stop offset="1" stop-color="#030306"/>
</linearGradient>
<radialGradient id="paint1_radial_2_206" cx="0" cy="0" r="1" gradientUnits="userSpaceOnUse" gradientTransform="translate(350 350) rotate(90) scale(350)">
<stop stop-color="#090A16"/>
<stop offset="1" stop-color="#030306"/>
</radialGradient>
<linearGradient id="paint2_linear_2_206" x1="0" y1="240" x2="699.64" y2="460.144" gradientUnits="userSpaceOnUse">
<stop stop-color="white"/>
<stop offset="1" stop-color="#D4D4D4"/>
</linearGradient>
</defs>
</svg>
